<?xml version="1.0" standalone="no"?>
<!DOCTYPE svg PUBLIC "-//W3C//DTD SVG 1.1//EN" "http://www.w3.org/Graphics/SVG/1.1/DTD/svg11.dtd" >
<svg xmlns="http://www.w3.org/2000/svg" xmlns:xlink="http://www.w3.org/1999/xlink" version="1.1">
<metadata>
Created by FontForge 20200314 at Wed May 16 17:49:22 2007
 By Unknown
Copyright 1990-1999 as an unpublished work by Bitstream Inc.  All rights reserved.  Confidential.
</metadata>
<defs>
<font id="BelweBT-Bold" horiz-adv-x="500" >
  <font-face 
    font-family="Belwe"
    font-weight="700"
    font-stretch="normal"
    units-per-em="1000"
    panose-1="0 0 0 0 0 0 0 0 0 0"
    ascent="800"
    descent="-200"
    x-height="491"
    cap-height="681"
    bbox="-167 -237 1061 978"
    underline-thickness="120"
    underline-position="-168"
    stemh="75"
    stemv="178"
    unicode-range="U+0020-FB02"
  />
<missing-glyph horiz-adv-x="264" 
 />
    <glyph glyph-name=".notdef" horiz-adv-x="264" 
 />
    <glyph glyph-name="space" unicode=" " horiz-adv-x="264" 
 />
    <glyph glyph-name="exclam" unicode="!" horiz-adv-x="352" 
d="M217 211h-82v4c0 193 -64 299 -64 368s42 111 105 111s105 -42 105 -111c0 -68 -64 -175 -64 -368v-4zM176 134c41 0 74 -33 74 -74c0 -42 -35 -74 -74 -74s-74 34 -74 74c0 39 33 74 74 74z" />
    <glyph glyph-name="quotedbl" unicode="&#x22;" horiz-adv-x="350" 
d="M101 413h-21l-42 226c-1 6 -2 12 -2 18c0 36 21 58 54 58s55 -22 55 -57c0 -6 -1 -13 -2 -19zM270 413h-22l-41 226c-1 6 -2 12 -2 18c0 36 21 58 54 58s54 -22 54 -57c0 -6 0 -13 -1 -19z" />
    <glyph glyph-name="numbersign" unicode="#" horiz-adv-x="769" 
d="M334 716h121l-68 -192h118l68 192h121l-68 -192h132l-42 -112h-130l-40 -114h135l-41 -112h-134l-69 -192h-121l69 192h-118l-69 -192h-121l69 192h-135l42 112h133l40 114h-139l42 112h137zM344 412l-41 -114h124l41 114h-124z" />
    <glyph glyph-name="dollar" unicode="$" horiz-adv-x="528" 
d="M207 662h112v-71c62 -8 114 -32 159 -71l-78 -115c-67 70 -116 108 -155 108c-25 0 -42 -15 -42 -38c0 -32 33 -55 88 -86c117 -67 182 -111 182 -203c0 -82 -52 -143 -154 -177v-83h-112v76c-66 6 -132 39 -185 94l83 122c79 -86 144 -127 188 -127c28 0 46 16 46 40
c0 30 -33 54 -97 93c-96 59 -169 99 -169 201c0 73 50 137 134 160v77z" />
    <glyph glyph-name="percent" unicode="%" horiz-adv-x="755" 
d="M175 606c82 0 145 -67 145 -175c0 -107 -62 -176 -145 -176s-145 69 -145 176s63 175 145 175zM502 606h96l-344 -620h-96zM143 538c-20 0 -32 -13 -32 -35s13 -73 44 -129c18 -33 34 -50 53 -50c17 0 29 14 29 39c0 21 -11 59 -36 110c-21 44 -41 65 -58 65zM581 337
c82 0 145 -67 145 -175c0 -107 -62 -176 -145 -176s-145 69 -145 176s63 175 145 175zM549 269c-20 0 -32 -13 -32 -35s13 -73 44 -129c18 -33 35 -50 54 -50c17 0 29 14 29 39c0 21 -11 59 -36 110c-21 44 -42 65 -59 65z" />
    <glyph glyph-name="ampersand" unicode="&#x26;" horiz-adv-x="764" 
d="M329 487c42 28 63 57 63 91c0 36 -16 55 -45 55c-28 0 -48 -23 -48 -57c0 -28 13 -55 30 -89zM365 430c21 -41 65 -108 135 -192c15 22 23 51 23 79c0 26 -14 46 -42 60v64h205v-72h-71c-3 -63 -20 -127 -57 -195c43 -48 82 -71 125 -71c19 0 33 5 46 19l33 -32
c-47 -69 -101 -104 -158 -104c-45 0 -96 24 -146 73c-60 -48 -134 -73 -204 -73c-142 0 -237 91 -237 207c0 90 56 160 168 225c-20 36 -31 70 -31 106c0 102 86 170 212 170c112 0 173 -47 173 -112c0 -70 -55 -110 -174 -152zM229 342c-25 -25 -37 -51 -37 -84
c0 -80 60 -148 136 -148c22 0 41 5 60 16c-58 60 -109 132 -159 216z" />
    <glyph glyph-name="quoteright" unicode="&#x2019;" horiz-adv-x="264" 
d="M97 479l-17 38c23 11 38 25 44 40c-36 1 -64 32 -64 68c0 38 27 69 72 69c41 0 72 -31 72 -86s-38 -106 -107 -129z" />
    <glyph glyph-name="parenleft" unicode="(" horiz-adv-x="333" 
d="M242 694l65 -45c-65 -113 -96 -234 -96 -370s31 -257 96 -370l-65 -46c-130 116 -196 255 -196 416c0 160 66 299 196 415z" />
    <glyph glyph-name="parenright" unicode=")" horiz-adv-x="333" 
d="M91 694c130 -116 196 -256 196 -416s-66 -299 -196 -415l-64 46c65 113 96 233 96 369s-31 256 -96 370z" />
    <glyph glyph-name="asterisk" unicode="*" 
d="M188 681h124l-38 -177l157 89l37 -116l-179 -19l133 -122l-98 -72l-74 166l-74 -166l-98 72l133 122l-179 19l37 116l157 -89z" />
    <glyph glyph-name="plus" unicode="+" horiz-adv-x="833" 
d="M359 596h116v-241h234v-113h-234v-242h-116v242h-235v113h235v241z" />
    <glyph glyph-name="comma" unicode="," horiz-adv-x="264" 
d="M102 -86l-17 38c23 12 37 27 43 41c-37 2 -63 31 -63 67c0 38 27 70 72 70c41 0 72 -32 72 -87s-38 -106 -107 -129z" />
    <glyph glyph-name="hyphen" unicode="-" horiz-adv-x="315" 
d="M28 319h259v-138h-259v138z" />
    <glyph glyph-name="period" unicode="." horiz-adv-x="264" 
d="M132 134c41 0 74 -33 74 -74c0 -42 -35 -74 -74 -74s-74 34 -74 74c0 39 33 74 74 74z" />
    <glyph glyph-name="slash" unicode="/" horiz-adv-x="347" 
d="M248 694h98l-272 -787h-98z" />
    <glyph glyph-name="zero" unicode="0" horiz-adv-x="528" 
d="M264 606c132 0 235 -119 235 -310s-102 -310 -235 -310c-132 0 -235 119 -235 310s102 310 235 310zM369 161c0 38 -21 134 -75 246c-30 62 -60 92 -88 92c-27 0 -47 -25 -47 -68c0 -36 20 -131 74 -245c29 -61 59 -92 89 -92c27 0 47 25 47 67z" />
    <glyph glyph-name="one" unicode="1" horiz-adv-x="528" 
d="M323 593h28c-2 -17 -2 -30 -2 -41v-492h46v-60h-254v60h46v389l-60 -25v64c129 52 177 105 196 105z" />
    <glyph glyph-name="two" unicode="2" horiz-adv-x="528" 
d="M257 132h96c43 0 63 12 71 53h56l-16 -206h-53l-4 21h-324l-14 85c162 101 245 219 245 314c0 79 -55 129 -99 129c-28 0 -46 -19 -46 -50c0 -34 34 -70 95 -88l-84 -153c-91 17 -143 81 -143 160c0 107 109 210 244 210c122 0 210 -73 210 -170
c0 -91 -80 -183 -234 -305z" />
    <glyph glyph-name="three" unicode="3" horiz-adv-x="528" 
d="M31 72l121 120c46 -69 86 -104 132 -104c38 0 64 26 64 61c0 61 -78 128 -149 128c-14 0 -29 -3 -45 -7l-29 40l157 158h-75c-43 0 -72 -10 -101 -41l-53 20l78 185l49 -18l-6 -21h252l28 -70l-124 -126c92 -15 148 -82 148 -163c0 -133 -111 -248 -255 -248
c-69 0 -132 28 -192 86z" />
    <glyph glyph-name="four" unicode="4" horiz-adv-x="528" 
d="M332 593h96c-2 -17 -2 -30 -2 -41v-340l63 6l-19 -87h-44v-71h46v-60h-259v60h54v71h-223v73zM275 411l-148 -199h142z" />
    <glyph glyph-name="five" unicode="5" horiz-adv-x="528" 
d="M185 391c29 14 59 20 90 20c115 0 191 -75 191 -186c0 -127 -100 -239 -235 -239c-69 0 -131 30 -183 87l114 129c54 -55 99 -84 148 -84c33 0 58 22 58 56c0 55 -65 107 -138 107c-31 0 -57 -7 -84 -24l-72 26l74 310h228l7 25h56l-32 -155c-23 2 -38 5 -45 5h-158z" />
    <glyph glyph-name="six" unicode="6" horiz-adv-x="528" 
d="M462 553l-120 -112c-32 43 -63 65 -95 65c-42 0 -65 -35 -65 -104c0 -15 0 -30 2 -48c40 31 82 47 130 47c107 0 183 -82 183 -194c0 -118 -102 -221 -230 -221c-135 0 -236 115 -236 282c0 198 138 338 293 338c60 0 104 -16 138 -53zM245 307c-20 0 -39 -17 -39 -41
c0 -32 18 -85 51 -133c25 -36 53 -53 73 -53s40 16 40 45c0 33 -20 90 -59 140c-22 28 -44 42 -66 42z" />
    <glyph glyph-name="seven" unicode="7" horiz-adv-x="528" 
d="M118 632l58 -7l1 -32h263l29 -62c-89 -162 -130 -334 -131 -531h-183v29c0 143 66 284 193 439h-131c-47 0 -65 -6 -80 -48l-60 12z" />
    <glyph glyph-name="eight" unicode="8" horiz-adv-x="528" 
d="M328 373c14 16 20 32 20 50c0 41 -66 103 -111 103c-24 0 -39 -17 -39 -43c0 -39 43 -65 130 -110zM391 335c58 -35 86 -81 86 -142c0 -113 -100 -207 -229 -207c-121 0 -197 64 -197 164c0 63 33 118 98 161c-51 33 -76 70 -76 119c0 96 93 176 204 176
c112 0 185 -67 185 -145c0 -50 -23 -84 -71 -126zM211 275c-21 -11 -34 -32 -34 -54c0 -59 85 -130 146 -130c33 0 53 22 53 48c0 37 -56 74 -165 136z" />
    <glyph glyph-name="nine" unicode="9" horiz-adv-x="528" 
d="M197 513c-20 0 -39 -16 -39 -44c0 -35 21 -94 59 -142c22 -28 43 -41 65 -41c21 0 39 16 39 43c0 28 -17 81 -51 131c-24 35 -53 53 -73 53zM66 39l119 112c31 -43 63 -65 96 -65c42 0 65 35 65 104c0 16 0 33 -2 49c-39 -31 -83 -47 -131 -47c-107 0 -182 82 -182 194
c0 118 101 220 229 220c134 0 237 -115 237 -282c0 -197 -138 -338 -293 -338c-60 0 -104 16 -138 53z" />
    <glyph glyph-name="colon" unicode=":" horiz-adv-x="264" 
d="M132 398c41 0 74 -33 74 -74c0 -42 -35 -74 -74 -74s-74 35 -74 74s33 74 74 74zM132 134c41 0 74 -33 74 -74c0 -42 -35 -74 -74 -74s-74 34 -74 74c0 39 33 74 74 74z" />
    <glyph glyph-name="semicolon" unicode=";" horiz-adv-x="264" 
d="M132 398c41 0 74 -33 74 -74c0 -42 -35 -74 -74 -74s-74 35 -74 74s33 74 74 74zM102 -86l-17 38c23 12 37 27 43 41c-37 2 -63 31 -63 67c0 38 27 70 72 70c41 0 72 -32 72 -87s-38 -106 -107 -129z" />
    <glyph glyph-name="less" unicode="&#x3c;" horiz-adv-x="833" 
d="M704 593v-124l-417 -171l417 -170v-124l-575 237v114z" />
    <glyph glyph-name="equal" unicode="=" horiz-adv-x="833" 
d="M124 464h585v-113h-585v113zM124 245h585v-112h-585v112z" />
    <glyph glyph-name="greater" unicode="&#x3e;" horiz-adv-x="833" 
d="M129 593l575 -238v-114l-575 -237v124l417 170l-417 171v124z" />
    <glyph glyph-name="question" unicode="?" horiz-adv-x="481" 
d="M272 211h-109c-1 17 -2 33 -2 46c0 51 18 97 53 146c32 46 63 78 63 126c0 47 -28 87 -61 87c-27 0 -46 -22 -46 -59c0 -30 10 -63 28 -99l-142 -65c-17 37 -26 72 -26 109c0 111 95 193 231 193c124 0 202 -75 202 -165c0 -103 -61 -133 -122 -184
c-45 -38 -69 -68 -69 -131v-4zM222 134c41 0 74 -33 74 -74c0 -42 -35 -74 -74 -74s-74 34 -74 74c0 39 33 74 74 74z" />
    <glyph glyph-name="at" unicode="@" horiz-adv-x="986" 
d="M551 460c-41 0 -72 -30 -102 -90c-40 -79 -58 -150 -58 -198s24 -76 58 -76c38 0 75 39 109 118c32 74 45 142 45 178c0 44 -19 68 -52 68zM572 153c-40 -63 -86 -94 -136 -94c-102 0 -159 62 -159 169c0 75 33 147 96 205c45 41 100 63 155 63c62 0 97 -28 106 -86
l23 77h102l-85 -305c-4 -16 -7 -29 -7 -43c0 -30 14 -48 34 -48c16 0 56 16 91 47c63 57 97 140 97 237c0 79 -22 143 -66 191c-64 71 -155 109 -261 109c-90 0 -173 -26 -243 -77c-108 -78 -168 -201 -168 -345c0 -219 143 -355 372 -355c111 0 206 34 308 101l20 -28
c-98 -73 -210 -111 -328 -111c-285 0 -460 161 -460 403c0 131 58 251 166 339c89 73 198 111 319 111c228 0 376 -135 376 -339c0 -108 -40 -199 -113 -264c-39 -35 -86 -53 -131 -53c-63 0 -104 36 -108 96z" />
    <glyph glyph-name="A" unicode="A" horiz-adv-x="685" 
d="M251 681h182l210 -605h36v-76h-307v76h58l-29 91h-232l-31 -91h59v-76h-197v76h43zM287 509l-87 -252h171z" />
    <glyph glyph-name="B" unicode="B" horiz-adv-x="685" 
d="M53 0v76h49v528h-49v77h339c147 0 220 -49 220 -143c0 -72 -49 -118 -142 -130c115 -13 184 -88 184 -193c0 -128 -90 -215 -246 -215h-355zM306 444h29c56 0 86 29 86 77c0 50 -30 76 -89 76h-26v-153zM306 361v-207c0 -49 17 -73 58 -73c53 0 89 49 89 144
c0 88 -42 136 -119 136h-28z" />
    <glyph glyph-name="C" unicode="C" horiz-adv-x="630" 
d="M532 625l32 26l42 -58l-212 -172l-41 49c16 15 24 34 24 55c0 39 -27 71 -64 71c-55 0 -94 -57 -94 -156c0 -168 89 -299 207 -299c61 0 110 25 155 77l52 -47c-79 -124 -175 -185 -296 -185c-180 0 -307 137 -307 329c0 95 30 180 90 251c70 84 161 128 250 128
c67 0 122 -23 162 -69z" />
    <glyph glyph-name="D" unicode="D" horiz-adv-x="725" 
d="M53 681h275c236 0 366 -131 366 -333c0 -118 -38 -207 -122 -276c-74 -61 -155 -72 -263 -72h-256v76h49v528h-49v77zM310 590v-500h21c86 0 141 88 141 258c0 161 -49 242 -148 242h-14z" />
    <glyph glyph-name="E" unicode="E" horiz-adv-x="644" 
d="M556 681v-142h-69l-1 28c-23 21 -66 30 -134 30h-42v-149h177v50h69v-183h-69v43h-177v-272h42c60 0 104 15 135 48v44h69v-178h-503v76h49v528h-49v77h503z" />
    <glyph glyph-name="F" unicode="F" horiz-adv-x="602" 
d="M53 681h503v-142h-69l-1 28c-30 20 -69 30 -119 30h-57v-149h177v50h69v-183h-69v43h-177v-282h70v-76h-327v76h49v528h-49v77z" />
    <glyph glyph-name="G" unicode="G" horiz-adv-x="722" 
d="M470 338h-116v73h229c25 0 49 4 73 13l27 -46c-14 -15 -26 -35 -26 -62v-316h-55l-45 72c-66 -57 -143 -86 -228 -86c-181 0 -299 128 -299 321c0 103 33 194 96 264c70 79 169 123 269 123c64 0 124 -20 176 -60l39 24l41 -62l-210 -138l-39 54c9 10 14 22 14 35
c0 31 -26 58 -64 58c-70 0 -123 -70 -123 -192c0 -171 88 -299 199 -299c15 0 29 1 42 5v219z" />
    <glyph glyph-name="H" unicode="H" horiz-adv-x="796" 
d="M53 681h306v-77h-49v-157h176v157h-49v77h306v-77h-49v-528h49v-76h-306v76h49v280h-176v-280h49v-76h-306v76h49v528h-49v77z" />
    <glyph glyph-name="I" unicode="I" horiz-adv-x="412" 
d="M53 681h306v-77h-49v-528h49v-76h-306v76h49v528h-49v77z" />
    <glyph glyph-name="J" unicode="J" horiz-adv-x="405" 
d="M65 681h305v-77h-48v-378c0 -72 -8 -125 -45 -170c-36 -43 -94 -70 -152 -70c-46 0 -80 5 -101 15l-9 102c13 -4 23 -5 28 -5c54 0 70 30 70 92v414h-48v77z" />
    <glyph glyph-name="K" unicode="K" horiz-adv-x="736" 
d="M53 681h301v-77h-48v-193l190 193h-47v77h218v-77h-43l-140 -139l196 -389h42v-76h-241l-9 20l-8 21l-125 284l-33 -30v-219h48v-76h-301v76h49v528h-49v77z" />
    <glyph glyph-name="L" unicode="L" horiz-adv-x="556" 
d="M53 681h334v-77h-77v-521h38c86 0 121 26 132 108h65l-19 -221h-68l-1 30h-404v76h49v528h-49v77z" />
    <glyph glyph-name="M" unicode="M" horiz-adv-x="859" 
d="M79 681h228c15 -45 26 -77 32 -93l93 -240l113 255c11 26 20 52 25 78h224v-77h-57l46 -528h44v-76h-301v76h58l-25 387c-76 -176 -119 -335 -134 -463h-101c-16 144 -56 298 -121 463l-39 -387h61v-76h-192v76h40l55 528h-49v77z" />
    <glyph glyph-name="N" unicode="N" horiz-adv-x="718" 
d="M53 681h227l245 -358v281h-48v77h187v-77h-48v-604h-121c-14 32 -32 62 -50 89l-253 370v-383h58v-76h-197v76h49v528h-49v77z" />
    <glyph glyph-name="O" unicode="O" horiz-adv-x="759" 
d="M380 694c199 0 349 -147 349 -354c0 -208 -150 -354 -349 -354s-350 146 -350 354s151 354 350 354zM341 606c-65 0 -101 -58 -101 -172c0 -79 20 -169 56 -248c34 -75 76 -112 123 -112c65 0 101 59 101 173c0 78 -20 168 -56 248c-34 75 -76 111 -123 111z" />
    <glyph glyph-name="P" unicode="P" horiz-adv-x="699" 
d="M53 681h294c214 0 329 -98 329 -246c0 -145 -112 -246 -268 -246c-36 0 -68 6 -98 19v-132h63v-76h-320v76h49v528h-49v77zM310 600v-260c0 -50 15 -75 60 -75c56 0 87 50 87 147c0 118 -54 188 -138 188h-9z" />
    <glyph glyph-name="Q" unicode="Q" horiz-adv-x="759" 
d="M341 606c-65 0 -101 -58 -101 -172c0 -79 20 -169 56 -248c34 -75 76 -112 123 -112c65 0 101 59 101 173c0 78 -20 168 -56 248c-34 75 -76 111 -123 111zM425 -11c102 0 185 -80 300 -83l-144 -130c-31 1 -69 17 -118 47c-68 42 -121 74 -179 74c-31 0 -67 -8 -97 -25
l-47 79c42 0 100 17 178 41c-177 31 -288 167 -288 348c0 208 151 354 350 354s349 -146 349 -354c0 -187 -119 -326 -304 -351z" />
    <glyph glyph-name="R" unicode="R" horiz-adv-x="713" 
d="M53 681h305c191 0 304 -90 304 -221c0 -86 -51 -158 -140 -193c16 -13 28 -30 40 -53l74 -138h42v-76h-239c-5 32 -13 58 -21 76l-70 153h-42v-153h48v-76h-301v76h49v528h-49v77zM306 597v-289h29c74 0 128 57 128 145s-55 144 -140 144h-17z" />
    <glyph glyph-name="S" unicode="S" horiz-adv-x="625" 
d="M504 645l23 32l58 -36l-108 -170c-96 82 -163 123 -204 123c-33 0 -55 -19 -55 -42c0 -35 37 -58 114 -87c87 -33 157 -55 201 -97c35 -34 54 -77 54 -126c0 -138 -124 -256 -284 -256c-105 0 -207 39 -297 114l116 168c105 -111 191 -168 261 -168c46 0 76 23 76 59
c0 25 -26 43 -76 64c-81 35 -159 54 -216 89c-61 37 -94 91 -94 154c0 114 116 229 256 229c54 0 111 -18 175 -50z" />
    <glyph glyph-name="T" unicode="T" horiz-adv-x="604" 
d="M36 706h69l4 -25h387l3 25h69l14 -208h-66c-9 62 -41 92 -98 92h-12v-514h59v-76h-326v76h59v514h-12c-57 0 -88 -30 -97 -92h-67z" />
    <glyph glyph-name="U" unicode="U" horiz-adv-x="796" 
d="M53 681h257v-482c0 -64 29 -95 90 -95c55 0 86 36 86 104v396h-49v77h257v-605h49v-76h-247l-9 66c-55 -53 -117 -80 -189 -80c-121 0 -196 74 -196 217v401h-49v77z" />
    <glyph glyph-name="V" unicode="V" horiz-adv-x="660" 
d="M621 684l32 -35c-21 -34 -32 -67 -43 -98l-159 -451c-12 -34 -21 -67 -26 -100h-184c-8 31 -18 63 -29 97l-170 507h-38v77h287v-77h-36l32 -104c47 123 120 187 194 187c37 0 67 -15 96 -15c16 0 31 4 44 12zM502 519c-5 -3 -10 -4 -15 -4c-26 0 -52 15 -84 15
c-44 0 -79 -27 -100 -79l84 -263z" />
    <glyph glyph-name="W" unicode="W" horiz-adv-x="979" 
d="M941 684l32 -35c-21 -34 -32 -67 -43 -98l-159 -451c-12 -34 -21 -67 -26 -100h-174c-8 32 -17 65 -27 97l-56 172l-59 -169c-12 -34 -20 -67 -25 -100h-176c-7 30 -16 62 -27 97l-159 507h-38v77h283v-77h-39l116 -433l83 234l-59 199h-38v77h263v-77h-25l25 -94
c64 118 128 177 188 177c36 0 68 -15 96 -15c16 0 31 4 44 12zM822 519c-5 -3 -10 -4 -15 -4c-26 0 -53 15 -86 15c-40 0 -66 -25 -93 -77l75 -282z" />
    <glyph glyph-name="X" unicode="X" horiz-adv-x="681" 
d="M49 681h332v-77h-62l95 -164l89 164h-49v77h186v-77h-36l-136 -255l157 -273h35v-76h-332v76h64l-117 205l-120 -205h65v-76h-201v76h32l171 294l-136 234h-37v77z" />
    <glyph glyph-name="Y" unicode="Y" horiz-adv-x="625" 
d="M-3 681h324v-77h-57l108 -191l113 191h-61v77h199v-77h-34l-277 -471c24 12 44 18 60 18c26 0 49 -9 71 -9c31 0 49 12 65 43l43 -11l-44 -171c-24 -12 -51 -17 -83 -17c-51 0 -104 21 -154 21c-28 0 -56 -7 -86 -16l-40 38l117 194l-233 381h-31v77z" />
    <glyph glyph-name="Z" unicode="Z" horiz-adv-x="556" 
d="M76 711h72l1 -30h338l37 -99c-11 -13 -38 -47 -82 -101l-248 -302c33 -5 67 -8 101 -8c101 0 154 18 170 72h63l-19 -275h-69l-3 32h-373l-44 108l344 421c-36 6 -72 10 -108 10c-74 0 -115 -23 -136 -83h-70z" />
    <glyph glyph-name="bracketleft" unicode="[" horiz-adv-x="333" 
d="M79 681h238v-79h-81v-660h81v-79h-238v818z" />
    <glyph glyph-name="backslash" unicode="\" horiz-adv-x="347" 
d="M1 694h98l273 -787h-98z" />
    <glyph glyph-name="bracketright" unicode="]" horiz-adv-x="333" 
d="M16 680h239v-817h-239v79h81v660h-81v78z" />
    <glyph glyph-name="asciicircum" unicode="^" horiz-adv-x="1000" 
d="M436 714h127l234 -276h-59l-239 170l-239 -170h-59z" />
    <glyph glyph-name="underscore" unicode="_" 
d="M0 -119h500v-117h-500v117z" />
    <glyph glyph-name="quoteleft" unicode="&#x2018;" horiz-adv-x="264" 
d="M167 694l17 -38c-24 -12 -39 -26 -44 -40c37 -2 64 -32 64 -68c0 -38 -29 -69 -69 -69c-46 0 -75 32 -75 83c0 59 38 109 107 132z" />
    <glyph glyph-name="a" unicode="a" horiz-adv-x="586" 
d="M157 526l53 -19l-10 -28c39 17 82 26 127 26c110 0 175 -62 175 -159v-284h35v-62h-198l-14 47c-45 -40 -91 -61 -137 -61c-97 0 -159 67 -159 155c0 121 85 181 254 181c14 0 28 -1 41 -2v26c0 32 -24 53 -63 53c-40 0 -79 -21 -110 -62l-59 23zM324 260
c-14 2 -22 3 -25 3c-56 0 -88 -37 -88 -93c0 -51 19 -77 56 -77c34 0 57 24 57 63v104z" />
    <glyph glyph-name="b" unicode="b" horiz-adv-x="593" 
d="M292 690v-63l-37 -12v-173c57 41 103 63 148 63c92 0 162 -81 162 -192c0 -90 -36 -172 -105 -237c-62 -59 -134 -90 -210 -90c-56 0 -125 21 -174 56v516l-34 -11v63zM255 180c0 -67 26 -102 69 -102c44 0 77 41 77 121c0 115 -45 189 -103 189c-16 0 -28 -5 -43 -14
v-194z" />
    <glyph glyph-name="c" unicode="c" horiz-adv-x="498" 
d="M473 402l-136 -131c-26 95 -65 143 -103 143c-31 0 -50 -27 -50 -79c0 -119 56 -205 136 -205c42 0 84 22 113 63l46 -34c-53 -113 -136 -173 -236 -173c-127 0 -216 97 -216 231c0 162 133 288 268 288c72 0 134 -36 178 -103z" />
    <glyph glyph-name="d" unicode="d" horiz-adv-x="616" 
d="M567 690v-63l-37 -12v-553h35v-62h-200l-13 56c-47 -47 -95 -70 -139 -70c-106 0 -186 90 -186 232c0 172 110 287 234 287c32 0 60 -5 91 -22v75l-35 -11v63zM352 343c0 54 -30 87 -65 87c-50 0 -83 -51 -83 -148c0 -115 43 -179 103 -179c18 0 34 6 45 18v222z" />
    <glyph glyph-name="e" unicode="e" horiz-adv-x="532" 
d="M329 319c-23 71 -56 107 -91 107c-30 0 -49 -27 -49 -76c0 -30 5 -58 14 -83zM423 272l-194 -79c29 -58 73 -88 129 -88c45 0 85 17 119 51l36 -39c-68 -88 -149 -131 -252 -131c-137 0 -233 108 -233 257c0 156 117 262 243 262c68 0 126 -26 170 -77
c46 -52 66 -114 66 -125s-25 -7 -84 -31z" />
    <glyph glyph-name="f" unicode="f" horiz-adv-x="370" 
d="M431 632l-112 -95c-15 54 -36 82 -60 82c-17 0 -26 -12 -26 -35c0 -53 43 -114 111 -114h29l-32 -79h-75v-329h58v-62h-271v62h35v329h-59l32 79h51c-19 25 -29 44 -29 71c0 35 22 68 65 98c51 35 119 55 165 55c53 0 90 -18 118 -62z" />
    <glyph glyph-name="g" unicode="g" horiz-adv-x="528" 
d="M16 66c78 17 139 38 183 60c-108 23 -172 96 -172 184c0 110 102 195 238 195c35 0 66 -4 94 -12c21 72 39 92 94 92c9 0 21 -1 35 -4l-20 -94c-13 7 -24 12 -34 12c-12 0 -19 -7 -19 -16c0 -22 88 -62 88 -170c0 -109 -80 -180 -259 -224c162 -21 240 -60 240 -138
c0 -75 -90 -136 -209 -136c-106 0 -162 37 -162 95c0 44 31 77 94 95c-27 4 -51 7 -73 7c-21 0 -40 -3 -59 -7zM271 -14c-15 -21 -23 -42 -23 -65c0 -34 16 -54 42 -54c21 0 36 14 36 39c0 33 -19 64 -55 80zM191 381c0 -110 51 -205 98 -205c31 0 51 24 51 69
c0 109 -49 201 -102 201c-29 0 -47 -23 -47 -65z" />
    <glyph glyph-name="h" unicode="h" horiz-adv-x="667" 
d="M301 690v-63l-37 -12v-196c68 57 127 86 179 86c83 0 140 -51 140 -151v-292h35v-62h-248v62h35v261c0 43 -18 64 -54 64c-26 0 -58 -13 -87 -40v-285h35v-62h-248v62h35v496l-35 -11v63z" />
    <glyph glyph-name="i" unicode="i" horiz-adv-x="352" 
d="M195 660c51 0 79 -27 79 -59c0 -47 -56 -85 -122 -85c-42 0 -68 24 -68 57c0 45 52 87 111 87zM264 505h7c-3 -36 -5 -65 -5 -86v-357h35v-62h-248v62h35v335l-35 -6v56z" />
    <glyph glyph-name="j" unicode="j" horiz-adv-x="331" 
d="M192 660c51 0 80 -27 80 -59c0 -47 -56 -85 -122 -85c-42 0 -69 24 -69 57c0 45 52 87 111 87zM262 505h6c-4 -32 -4 -61 -4 -86v-328c0 -171 -66 -248 -237 -258l-14 47c59 29 73 67 73 140v377l-35 -6v56z" />
    <glyph glyph-name="k" unicode="k" horiz-adv-x="616" 
d="M299 690v-63l-37 -12v-191c62 53 116 81 173 81c83 0 144 -63 144 -141c0 -74 -50 -131 -143 -157l115 -145h47v-62h-209l-127 185v-123h34v-62h-245v62h35v496l-35 -11v63zM262 356v-147l103 75h13l29 -37c15 15 21 32 21 55c0 45 -37 84 -91 84c-27 0 -54 -10 -75 -30z
" />
    <glyph glyph-name="l" unicode="l" horiz-adv-x="350" 
d="M301 690v-63l-37 -12v-553h35v-62h-248v62h35v496l-35 -11v63z" />
    <glyph glyph-name="m" unicode="m" horiz-adv-x="954" 
d="M264 505h7l-8 -74c63 47 114 74 165 74c58 0 108 -31 130 -80c65 53 122 80 172 80c83 0 140 -51 140 -151v-292h35v-62h-248v62h35v261c0 44 -16 65 -53 65c-24 0 -45 -11 -71 -31v-295h35v-62h-248v62h35v261c0 44 -16 65 -53 65c-24 0 -45 -11 -71 -31v-295h35v-62
h-248v62h35v335l-35 -6v56z" />
    <glyph glyph-name="n" unicode="n" horiz-adv-x="669" 
d="M264 505h7l-5 -86c68 57 127 86 179 86c83 0 141 -51 141 -151v-292h34v-62h-247v62h34v261c0 43 -18 64 -54 64c-26 0 -58 -13 -87 -40v-285h35v-62h-248v62h35v335l-35 -6v56z" />
    <glyph glyph-name="o" unicode="o" horiz-adv-x="611" 
d="M306 505c159 0 277 -110 277 -260s-117 -259 -277 -259s-278 108 -278 259s118 260 278 260zM400 183c0 144 -71 247 -126 247c-39 0 -63 -40 -63 -116c0 -150 68 -253 124 -253c42 0 65 41 65 122z" />
    <glyph glyph-name="p" unicode="p" horiz-adv-x="620" 
d="M257 505h6l1 -51c47 34 92 51 136 51c102 0 193 -94 193 -239c0 -157 -104 -280 -236 -280c-40 0 -71 10 -93 28v-118h62v-63h-275v63h35v501l-35 -6v56zM264 164c0 -73 22 -110 67 -110c52 0 79 54 79 160c0 125 -43 189 -117 189c-9 0 -18 -1 -29 -2v-237z" />
    <glyph glyph-name="q" unicode="q" horiz-adv-x="620" 
d="M451 453l90 45c-4 -38 -6 -64 -6 -76v-526h34v-63h-275v63h62v144c-48 -36 -92 -54 -137 -54c-105 0 -191 93 -191 227c0 166 137 292 281 292c51 0 96 -17 142 -52zM356 333c0 64 -25 97 -69 97c-51 0 -86 -48 -86 -136c0 -119 50 -198 111 -198c14 0 28 3 44 10v227z
" />
    <glyph glyph-name="r" unicode="r" horiz-adv-x="461" 
d="M418 510l53 -19l-59 -167c-35 14 -62 22 -82 22c-38 0 -64 -27 -64 -76v-208h51v-62h-264v62h35v251c0 19 0 29 -16 39l-19 -15l-36 40l108 128c58 -27 94 -58 110 -101c43 66 68 101 107 101c15 0 37 -5 65 -18z" />
    <glyph glyph-name="s" unicode="s" horiz-adv-x="440" 
d="M404 450l-73 -115c-55 65 -98 98 -133 98c-19 0 -31 -12 -31 -29c0 -26 30 -44 82 -70c109 -55 169 -89 169 -171c0 -93 -88 -177 -217 -177c-73 0 -139 24 -198 71l82 127c72 -79 128 -118 166 -118c22 0 34 11 34 31c0 26 -32 43 -90 74c-90 49 -148 75 -148 167
c0 95 71 167 189 167c59 0 114 -18 168 -55z" />
    <glyph glyph-name="t" unicode="t" horiz-adv-x="375" 
d="M212 616l50 -11v-119h87l-10 -58c-2 -14 -3 -21 -15 -21h-62v-252c0 -47 10 -69 43 -69c11 0 24 4 41 14l26 -38c-49 -50 -105 -76 -159 -76c-95 0 -130 44 -130 138v283h-46v57c89 26 147 77 175 152z" />
    <glyph glyph-name="u" unicode="u" horiz-adv-x="648" 
d="M255 505h7v-337c0 -42 17 -64 50 -64c23 0 50 11 72 33v260l-34 -6v56l206 58h6v-443h35v-62h-201l-21 60c-54 -50 -107 -74 -152 -74c-83 0 -140 51 -140 151v260l-34 -6v56z" />
    <glyph glyph-name="v" unicode="v" horiz-adv-x="523" 
d="M184 505c5 -22 18 -64 47 -125c31 79 69 118 124 118c33 0 65 -18 99 -18c17 0 32 5 45 15l20 -21c-15 -28 -27 -58 -40 -89l-122 -299c-12 -29 -24 -56 -29 -86h-115c-7 31 -19 54 -28 73l-137 293l-31 -13l-23 45zM400 381c-10 -11 -20 -17 -31 -17
c-24 0 -52 17 -70 17c-23 0 -35 -14 -51 -43l69 -160z" />
    <glyph glyph-name="w" unicode="w" horiz-adv-x="799" 
d="M184 505c9 -38 27 -79 45 -125l86 -218l48 129l-33 75l-31 -13l-23 45l184 107c5 -22 17 -64 46 -125c34 78 77 118 128 118c33 0 64 -18 96 -18c17 0 31 5 44 15l21 -21c-15 -28 -27 -58 -40 -89l-123 -299c-12 -29 -24 -56 -29 -86h-115c-7 28 -17 52 -27 73l-59 133
l-47 -120c-10 -25 -20 -53 -27 -86h-115c-7 31 -19 54 -28 73l-137 293l-31 -13l-23 45zM675 381c-10 -11 -20 -17 -31 -17c-24 0 -52 17 -70 17c-24 0 -35 -15 -52 -45l66 -174z" />
    <glyph glyph-name="x" unicode="x" horiz-adv-x="546" 
d="M42 491h279v-63h-45l58 -104l67 104h-29v63h144v-63h-29l-112 -171l112 -195h36v-62h-278v62h44l-75 130l-86 -130h36v-62h-156v62h34l132 199l-96 167h-36v63z" />
    <glyph glyph-name="y" unicode="y" horiz-adv-x="542" 
d="M184 505c10 -41 29 -87 52 -138c47 89 77 131 136 131c36 0 70 -19 104 -19c15 0 31 5 46 15l21 -22c-13 -18 -29 -49 -50 -94l-188 -400c-51 -108 -105 -163 -179 -163c-30 0 -58 7 -76 16l28 132c32 -16 58 -25 80 -25c32 0 57 15 69 43l12 28l-191 357l-31 -13l-23 45
zM410 370c-8 -4 -15 -7 -22 -7c-30 0 -50 18 -74 18c-21 0 -42 -19 -60 -57l66 -146z" />
    <glyph glyph-name="z" unicode="z" horiz-adv-x="440" 
d="M75 516h55l2 -25h251l25 -60c-18 -16 -30 -31 -42 -45l-215 -253c12 -4 28 -7 47 -7c78 0 132 27 172 86l50 -10l-35 -232h-55l-2 30h-281l-41 84l252 295c-24 4 -44 6 -57 6c-55 0 -91 -19 -120 -63l-45 13z" />
    <glyph glyph-name="braceleft" unicode="{" 
d="M416 740v-32c-80 -2 -94 -36 -94 -128v-64c0 -123 -12 -181 -115 -206c103 -25 115 -82 115 -205v-64c0 -92 14 -127 94 -129v-31h-6c-150 0 -195 41 -195 169v91c0 104 -24 140 -128 150v39c104 10 128 46 128 150v91c0 128 45 169 195 169h6z" />
    <glyph glyph-name="bar" unicode="|" 
d="M192 764h117v-1000h-117v1000z" />
    <glyph glyph-name="braceright" unicode="}" 
d="M84 740h6c150 0 195 -41 195 -169v-91c0 -104 24 -140 128 -150v-39c-104 -10 -128 -46 -128 -150v-91c0 -128 -45 -169 -195 -169h-6v31c80 2 94 37 94 129v64c0 123 12 180 115 205c-103 26 -115 84 -115 206v64c0 92 -14 126 -94 128v32z" />
    <glyph glyph-name="asciitilde" unicode="~" horiz-adv-x="833" 
d="M747 400v-124c-64 -44 -124 -67 -184 -67c-30 0 -59 5 -84 14c-72 25 -137 50 -205 50c-59 0 -117 -27 -187 -77v124c71 46 133 70 189 70s101 -14 144 -28c48 -16 94 -36 146 -36c58 0 115 26 181 74z" />
    <glyph glyph-name="exclamdown" unicode="&#xa1;" horiz-adv-x="352" 
d="M176 694c39 0 74 -35 74 -74s-33 -74 -74 -74s-74 33 -74 74c0 42 35 74 74 74zM135 470h82v-4c0 -193 64 -300 64 -368c0 -69 -42 -112 -105 -112s-105 42 -105 112c0 69 64 175 64 368v4z" />
    <glyph glyph-name="cent" unicode="&#xa2;" horiz-adv-x="528" 
d="M218 620h106v-99c56 -11 101 -41 131 -89l-117 -115c-33 85 -55 127 -91 127c-26 0 -44 -24 -44 -71c0 -99 50 -177 118 -177c37 0 74 19 99 55l40 -30c-32 -69 -77 -115 -136 -139v-119h-106v112c-88 14 -151 94 -151 196c0 101 55 188 151 232v117z" />
    <glyph glyph-name="sterling" unicode="&#xa3;" horiz-adv-x="528" 
d="M470 516l-133 -109c-23 80 -54 120 -84 120c-23 0 -38 -13 -38 -36c0 -45 54 -83 77 -152h107v-74h-102c-5 -50 -36 -96 -92 -133h132c44 0 63 13 71 53h56l-16 -206h-53l-4 21h-301l-31 110c53 39 78 80 78 133v22h-84v74h68c-26 35 -40 66 -40 98c0 85 104 170 214 170
c66 0 125 -31 175 -91z" />
    <glyph glyph-name="fraction" unicode="&#x2044;" horiz-adv-x="167" 
d="M237 606h96l-403 -620h-97z" />
    <glyph glyph-name="yen" unicode="&#xa5;" horiz-adv-x="528" 
d="M-10 593h239v-61h-40l106 -252l101 252h-34v61h168v-61h-43l-62 -141h83v-65h-113l-19 -46h132v-65h-161v-155h47v-60h-246v60h46v155h-174v65h143l-24 46h-119v65h88l-66 141h-52v61z" />
    <glyph glyph-name="florin" unicode="&#x192;" horiz-adv-x="528" 
d="M513 542l-128 -90c-3 59 -18 89 -44 89c-22 0 -39 -23 -39 -67c0 -89 44 -146 119 -149l-11 -63h-91l-31 -214c-19 -137 -75 -203 -183 -203c-27 0 -54 4 -76 11l12 60c7 -1 12 -2 17 -2c34 0 51 25 58 76l39 272h-82l15 69h76l10 69c19 138 86 206 210 206
c55 0 97 -20 129 -64z" />
    <glyph glyph-name="section" unicode="&#xa7;" 
d="M365 195c49 -22 76 -67 76 -125c0 -108 -97 -195 -201 -195c-40 0 -81 10 -126 29l-16 -28l-52 15l52 156c71 -55 131 -83 185 -83c42 0 66 24 66 45c0 38 -42 45 -121 66c-125 32 -199 61 -199 160c0 65 32 126 91 165c-41 25 -64 69 -64 122c0 89 78 173 194 173
c42 0 86 -11 136 -30l16 32l52 -19l-51 -122c-74 48 -141 69 -183 69c-40 0 -63 -21 -63 -45c0 -33 38 -41 110 -60c121 -32 200 -59 200 -161c0 -61 -34 -116 -102 -164zM320 213c31 28 47 52 47 74c0 45 -65 62 -204 96c-29 -25 -44 -50 -44 -73c0 -49 65 -61 201 -97z
" />
    <glyph glyph-name="currency" unicode="&#xa4;" horiz-adv-x="528" 
d="M519 152c-48 -99 -135 -168 -231 -168c-128 0 -215 95 -233 234h-55l10 52h41c0 20 1 39 4 59h-55l10 52h55c32 119 116 228 250 228c54 0 90 -23 120 -61l26 23l38 -46l-152 -124l-35 42c10 4 18 17 18 36c0 27 -25 50 -55 50c-45 0 -72 -48 -72 -145v-3h185l-10 -52
h-172c2 -21 6 -40 11 -59h151l-10 -52h-123c27 -60 71 -98 125 -98c49 0 79 22 115 68z" />
    <glyph glyph-name="quotesingle" unicode="'" horiz-adv-x="181" 
d="M101 413h-21l-42 226c-1 6 -2 12 -2 18c0 35 22 58 55 58s54 -22 54 -57c0 -6 -1 -13 -2 -19z" />
    <glyph glyph-name="quotedblleft" unicode="&#x201c;" horiz-adv-x="468" 
d="M167 694l17 -38c-24 -12 -39 -26 -44 -40c37 -2 64 -32 64 -68c0 -38 -29 -69 -69 -69c-46 0 -75 32 -75 83c0 59 38 109 107 132zM371 694l17 -38c-24 -12 -39 -26 -44 -40c37 -2 63 -32 63 -68c0 -38 -28 -69 -68 -69c-46 0 -75 32 -75 83c0 59 38 109 107 132z" />
    <glyph glyph-name="guillemotleft" unicode="&#xab;" horiz-adv-x="458" 
d="M141 449h93l-56 -197l50 -196h-93l-107 196zM338 449h93l-56 -197l50 -196h-93l-107 196z" />
    <glyph glyph-name="guilsinglleft" unicode="&#x2039;" horiz-adv-x="262" 
d="M141 449h93l-56 -197l50 -196h-93l-107 196z" />
    <glyph glyph-name="guilsinglright" unicode="&#x203a;" horiz-adv-x="262" 
d="M34 449h92l108 -197l-114 -196h-92l55 196z" />
    <glyph glyph-name="fi" unicode="&#xfb01;" horiz-adv-x="678" 
d="M509 621l-129 -74c-42 51 -83 75 -113 75c-23 0 -34 -13 -34 -38c0 -71 54 -114 160 -114c82 0 148 12 198 35h6c-3 -36 -4 -65 -4 -86v-357h34v-62h-247v62h34v329h-148v-329h35v-62h-248v62h35v329h-59l32 79h51c-19 25 -29 44 -29 71c0 35 22 68 65 98
c52 35 117 55 168 55c75 0 143 -26 193 -73z" />
    <glyph glyph-name="fl" unicode="&#xfb02;" horiz-adv-x="678" 
d="M486 642l144 48v-63l-37 -12v-553h34v-62h-247v62h34v496l-34 -11c-42 51 -83 75 -113 75c-22 0 -34 -13 -34 -37c0 -55 43 -115 111 -115h29l-32 -79h-75v-329h35v-62h-248v62h35v329h-59l32 79h51c-19 25 -29 44 -29 71c0 35 22 68 65 98c52 36 116 55 168 55
c60 0 114 -17 170 -52z" />
    <glyph glyph-name="endash" unicode="&#x2013;" 
d="M0 310h500v-120h-500v120z" />
    <glyph glyph-name="dagger" unicode="&#x2020;" 
d="M180 681h140l-47 -209l170 45l1 -136l-171 48c13 -68 26 -125 46 -170c-23 -72 -35 -200 -43 -384h-52c-8 164 -16 290 -43 384c20 47 33 104 46 170l-171 -48l1 136l170 -45z" />
    <glyph glyph-name="daggerdbl" unicode="&#x2021;" 
d="M180 681h140l-47 -209l170 45l1 -136l-171 48c8 -46 24 -95 46 -151c-20 -56 -38 -105 -46 -152l171 49l-1 -137l-170 46l47 -209h-140l47 209l-170 -46l-1 137l171 -49c-10 50 -26 100 -46 152c20 48 35 99 46 151l-171 -48l1 136l170 -45z" />
    <glyph glyph-name="periodcentered" unicode="&#xb7;" horiz-adv-x="264" 
d="M132 370c41 0 74 -33 74 -74c0 -42 -35 -74 -74 -74s-74 35 -74 74s33 74 74 74z" />
    <glyph glyph-name="paragraph" unicode="&#xb6;" 
d="M487 722v-60h-52v-662h-85v662h-74v-662h-85v383c-109 4 -177 73 -177 169c0 100 72 170 190 170h283z" />
    <glyph glyph-name="bullet" unicode="&#x2022;" horiz-adv-x="590" 
d="M150 372c0 80 65 144 145 144c79 0 144 -64 144 -144c0 -79 -65 -145 -145 -145s-144 65 -144 145z" />
    <glyph glyph-name="quotesinglbase" unicode="&#x201a;" horiz-adv-x="264" 
d="M97 -81l-17 38c23 12 38 26 44 40c-37 1 -64 32 -64 68c0 38 27 69 72 69c41 0 72 -31 72 -86s-38 -106 -107 -129z" />
    <glyph glyph-name="quotedblbase" unicode="&#x201e;" horiz-adv-x="468" 
d="M97 -81l-17 38c23 12 38 26 44 40c-37 1 -64 32 -64 68c0 38 27 69 72 69c41 0 72 -31 72 -86s-38 -106 -107 -129zM300 -81l-16 38c24 12 38 26 43 40c-37 1 -63 32 -63 68c0 38 27 69 72 69c41 0 71 -31 71 -86s-38 -106 -107 -129z" />
    <glyph glyph-name="quotedblright" unicode="&#x201d;" horiz-adv-x="468" 
d="M97 478l-17 39c23 11 38 25 44 40c-36 1 -64 32 -64 68c0 38 27 69 72 69c41 0 72 -31 72 -86s-38 -107 -107 -130zM300 478l-16 39c21 11 36 22 43 40c-36 1 -63 32 -63 68c0 38 27 69 72 69c41 0 71 -31 71 -86s-38 -107 -107 -130z" />
    <glyph glyph-name="guillemotright" unicode="&#xbb;" horiz-adv-x="458" 
d="M34 449h92l108 -197l-114 -196h-92l55 196zM230 449h93l108 -197l-114 -196h-92l55 196z" />
    <glyph glyph-name="ellipsis" unicode="&#x2026;" horiz-adv-x="1000" 
d="M167 134c41 0 74 -33 74 -74c0 -42 -35 -74 -74 -74s-74 34 -74 74c0 39 33 74 74 74zM500 134c41 0 74 -33 74 -74c0 -42 -35 -74 -74 -74s-74 34 -74 74c0 39 33 74 74 74zM834 134c41 0 74 -33 74 -74c0 -42 -35 -74 -74 -74s-74 34 -74 74c0 39 33 74 74 74z" />
    <glyph glyph-name="perthousand" unicode="&#x2030;" horiz-adv-x="1090" 
d="M175 606c82 0 145 -67 145 -175c0 -107 -62 -176 -145 -176s-145 69 -145 176s63 175 145 175zM502 606h96l-344 -620h-96zM143 538c-20 0 -32 -13 -32 -35s13 -73 44 -129c18 -33 34 -50 53 -50c17 0 29 14 29 39c0 21 -11 59 -36 110c-21 44 -41 65 -58 65zM581 337
c82 0 145 -67 145 -175c0 -107 -62 -176 -145 -176s-145 69 -145 176s63 175 145 175zM916 337c82 0 145 -67 145 -175c0 -107 -62 -176 -145 -176s-145 69 -145 176s63 175 145 175zM549 269c-20 0 -32 -13 -32 -35s13 -73 44 -129c18 -33 35 -50 54 -50c17 0 29 14 29 39
c0 21 -11 59 -36 110c-21 44 -42 65 -59 65zM885 269c-20 0 -32 -13 -32 -35s13 -73 44 -129c18 -33 34 -50 53 -50c17 0 30 14 30 39c0 21 -11 59 -36 110c-21 44 -42 65 -59 65z" />
    <glyph glyph-name="questiondown" unicode="&#xbf;" horiz-adv-x="481" 
d="M260 694c39 0 74 -35 74 -74s-33 -74 -74 -74s-74 33 -74 74c0 42 35 74 74 74zM209 469h109c2 -21 3 -37 3 -46c0 -50 -19 -95 -54 -145c-33 -46 -62 -79 -62 -127c0 -47 28 -86 61 -86c28 0 45 21 45 63c0 24 -9 56 -28 94l143 66c17 -37 25 -73 25 -109
c0 -110 -95 -193 -231 -193c-124 0 -202 72 -202 170c0 97 65 129 123 178c45 38 68 68 68 131v4z" />
    <glyph glyph-name="grave" unicode="`" 
d="M101 740h140l94 -181h-75z" />
    <glyph glyph-name="acute" unicode="&#xb4;" 
d="M259 740h140l-159 -181h-75z" />
    <glyph glyph-name="circumflex" unicode="&#x2c6;" 
d="M187 740h125l94 -181h-75l-81 97l-82 -97h-75z" />
    <glyph glyph-name="tilde" unicode="&#x2dc;" 
d="M354 718h58c-20 -84 -50 -124 -107 -124c-11 0 -24 1 -37 5l-45 13c-14 4 -24 6 -33 6c-22 0 -35 -11 -44 -37h-58c18 81 51 120 105 120c11 0 26 -3 44 -8l46 -13c9 -3 18 -4 28 -4c22 0 36 14 43 42z" />
    <glyph glyph-name="macron" unicode="&#xaf;" 
d="M100 690h300v-82h-300v82z" />
    <glyph glyph-name="breve" unicode="&#x2d8;" 
d="M96 724h64c4 -47 33 -68 90 -68s86 22 89 68h64c-8 -103 -55 -151 -153 -151c-97 0 -146 49 -154 151z" />
    <glyph glyph-name="dotaccent" unicode="&#x2d9;" 
d="M250 722c41 0 73 -33 73 -73c0 -42 -31 -73 -73 -73c-39 0 -72 33 -72 73c0 38 34 73 72 73z" />
    <glyph glyph-name="dieresis" unicode="&#xa8;" 
d="M155 719c39 0 69 -31 69 -69c0 -41 -29 -71 -69 -71c-39 0 -71 32 -71 70s33 70 71 70zM345 719c39 0 70 -31 70 -69c0 -41 -30 -71 -70 -71c-39 0 -71 32 -71 70s33 70 71 70z" />
    <glyph glyph-name="ring" unicode="&#x2da;" 
d="M250 814c74 0 133 -59 133 -132c0 -74 -59 -132 -133 -132s-132 57 -132 132c0 74 59 132 132 132zM250 738c-31 0 -56 -25 -56 -56s25 -56 56 -56s56 25 56 56s-25 56 -56 56z" />
    <glyph glyph-name="cedilla" unicode="&#xb8;" 
d="M222 0h56v-41h9c73 0 112 -34 112 -94c0 -63 -43 -102 -124 -102c-37 0 -85 7 -142 23v67c62 -17 108 -22 132 -22c28 0 42 11 42 35c0 22 -19 31 -58 31c-8 0 -17 0 -27 -1v104z" />
    <glyph glyph-name="hungarumlaut" unicode="&#x2dd;" 
d="M194 740h120l-123 -181h-54zM354 740h124l-142 -181h-58z" />
    <glyph glyph-name="ogonek" unicode="&#x2db;" 
d="M256 0h53c-38 -35 -58 -63 -58 -96c0 -27 12 -39 37 -39h50v-93h-75c-60 0 -101 38 -101 96c0 50 30 90 94 132z" />
    <glyph glyph-name="caron" unicode="&#x2c7;" 
d="M93 740h75l82 -98l81 98h75l-94 -181h-125z" />
    <glyph glyph-name="emdash" unicode="&#x2014;" horiz-adv-x="1000" 
d="M0 310h1000v-120h-1000v120z" />
    <glyph glyph-name="AE" unicode="&#xc6;" horiz-adv-x="954" 
d="M255 681h611v-142h-69l-1 28c-30 20 -69 30 -119 30h-57v-149h177v50h69v-183h-69v43h-177v-272h42c60 0 104 15 135 48v44h69v-178h-503v76h49v91h-248l-52 -91h50v-76h-197v76h43l303 528h-56v77zM412 600l-196 -343h196v343z" />
    <glyph glyph-name="ordfeminine" unicode="&#xaa;" horiz-adv-x="440" 
d="M118 705l40 -13l-8 -20c29 12 62 18 95 18c83 0 132 -43 132 -111v-199h26v-43h-149l-10 33c-34 -28 -68 -43 -103 -43c-73 0 -119 47 -119 109c0 84 64 126 190 126c11 0 21 0 31 -1v18c0 23 -18 37 -47 37c-30 0 -59 -14 -83 -43l-44 16zM243 519c-10 1 -16 2 -19 2
c-42 0 -66 -26 -66 -65c0 -36 15 -54 42 -54c26 0 43 17 43 44v73z" />
    <glyph glyph-name="Lslash" unicode="&#x141;" horiz-adv-x="556" 
d="M53 681h334v-77h-77v-157l137 89v-113l-137 -89v-251h38c86 0 121 26 132 108h65l-19 -221h-68l-1 30h-404v76h49v152l-102 -67v114l102 66v263h-49v77z" />
    <glyph glyph-name="Oslash" unicode="&#xd8;" horiz-adv-x="759" 
d="M632 722h127l-117 -140c59 -70 87 -148 87 -242c0 -208 -150 -354 -349 -354c-69 0 -130 17 -190 53l-76 -92h-126l128 153c-56 62 -86 145 -86 240c0 208 151 354 350 354c69 0 128 -14 187 -50zM456 510c-31 64 -73 96 -115 96c-65 0 -101 -58 -101 -172
c0 -49 7 -102 22 -157zM497 406l-195 -234c30 -65 75 -98 117 -98c65 0 101 59 101 173c0 44 -7 97 -23 159z" />
    <glyph glyph-name="OE" unicode="&#x152;" horiz-adv-x="1065" 
d="M633 681h344v-142h-68l-2 28c-30 20 -69 30 -119 30h-57v-149h178v50h68v-183h-68v43h-178v-272h42c60 0 105 15 136 48v44h68v-178h-344c-90 0 -171 -14 -240 -14c-219 0 -363 147 -363 354s144 354 363 354c69 0 150 -13 240 -13zM523 459c0 100 -45 152 -126 152
c-95 0 -145 -81 -145 -241c0 -190 59 -300 161 -300c88 0 110 57 110 170v219z" />
    <glyph glyph-name="ordmasculine" unicode="&#xba;" horiz-adv-x="458" 
d="M230 690c119 0 207 -77 207 -182s-87 -181 -207 -181s-209 76 -209 181c0 106 89 182 209 182zM300 465c0 101 -53 173 -94 173c-30 0 -48 -28 -48 -81c0 -105 51 -177 93 -177c32 0 49 28 49 85z" />
    <glyph glyph-name="ae" unicode="&#xe6;" horiz-adv-x="815" 
d="M157 526l53 -19l-10 -28c42 18 82 26 115 26c50 0 89 -15 114 -42c38 28 79 42 125 42c68 0 126 -26 170 -77c46 -52 65 -114 65 -125s-24 -7 -83 -31l-194 -79c29 -58 72 -88 128 -88c45 0 85 17 119 51l37 -39c-68 -88 -150 -131 -253 -131c-77 0 -141 31 -178 86
c-61 -58 -121 -86 -183 -86c-87 0 -153 66 -153 155c0 121 85 181 254 181c14 0 28 -1 41 -2v26c0 32 -24 53 -63 53c-40 0 -79 -21 -110 -62l-59 23zM611 319c-23 71 -56 107 -91 107c-30 0 -49 -27 -49 -76c0 -30 5 -59 14 -83zM324 260c-14 2 -22 3 -25 3
c-56 0 -88 -37 -88 -93c0 -51 19 -77 56 -77c34 0 57 24 57 63v104z" />
    <glyph glyph-name="dotlessi" unicode="&#x131;" horiz-adv-x="352" 
d="M264 505h7c-3 -36 -5 -65 -5 -86v-357h35v-62h-248v62h35v335l-35 -6v56z" />
    <glyph glyph-name="lslash" unicode="&#x142;" horiz-adv-x="350" 
d="M301 690v-63l-37 -12v-168l86 56v-89l-86 -55v-297h35v-62h-248v62h35v211l-86 -55v88l86 56v196l-35 -11v63z" />
    <glyph glyph-name="oslash" unicode="&#xf8;" horiz-adv-x="611" 
d="M495 535h102l-88 -107c50 -51 74 -111 74 -183c0 -151 -117 -259 -277 -259c-49 0 -95 10 -138 31l-66 -79h-103l104 125c-48 44 -75 108 -75 182c0 151 119 260 278 260c50 0 94 -11 138 -33zM358 368c-29 42 -56 63 -83 63c-42 0 -69 -42 -69 -122c0 -28 4 -64 13 -107
zM391 287l-136 -166c23 -38 53 -59 79 -59c43 0 70 43 70 121c0 38 -3 72 -13 104z" />
    <glyph glyph-name="oe" unicode="&#x153;" horiz-adv-x="889" 
d="M481 450c49 36 98 55 147 55c68 0 126 -26 170 -77c46 -52 65 -114 65 -125s-24 -7 -83 -31l-194 -79c29 -58 72 -88 128 -88c45 0 85 17 119 51l37 -39c-68 -88 -150 -131 -253 -131c-56 0 -106 17 -144 49c-53 -34 -105 -49 -167 -49c-160 0 -278 108 -278 259
s118 260 278 260c65 0 123 -19 175 -55zM400 183c0 144 -71 247 -126 247c-39 0 -63 -40 -63 -116c0 -150 68 -253 124 -253c42 0 65 41 65 122zM685 319c-23 71 -56 107 -91 107c-30 0 -49 -27 -49 -76c0 -30 5 -58 14 -83z" />
    <glyph glyph-name="germandbls" unicode="&#xdf;" horiz-adv-x="657" 
d="M330 12v162c33 -39 66 -59 94 -59c29 0 50 25 50 50c0 36 -37 58 -86 99c-46 39 -70 76 -70 122c0 80 76 124 76 179c0 32 -24 57 -61 57c-45 0 -67 -27 -67 -81v-541h-213v62h35v329h-59l32 79h27c19 150 105 224 260 224c114 0 198 -59 198 -126
c0 -70 -85 -102 -85 -142c0 -32 32 -41 71 -69c67 -48 98 -101 98 -173c0 -113 -91 -198 -199 -198c-43 0 -78 10 -101 26z" />
    <glyph glyph-name="Aacute" unicode="&#xc1;" horiz-adv-x="685" 
d="M251 681h182l210 -605h36v-76h-307v76h58l-29 91h-232l-31 -91h59v-76h-197v76h43zM287 509l-87 -252h171zM352 930h140l-159 -181h-75z" />
    <glyph glyph-name="Acircumflex" unicode="&#xc2;" horiz-adv-x="685" 
d="M251 681h182l210 -605h36v-76h-307v76h58l-29 91h-232l-31 -91h59v-76h-197v76h43zM287 509l-87 -252h171zM280 930h125l94 -181h-75l-81 97l-82 -97h-75z" />
    <glyph glyph-name="Adieresis" unicode="&#xc4;" horiz-adv-x="685" 
d="M251 681h182l210 -605h36v-76h-307v76h58l-29 91h-232l-31 -91h59v-76h-197v76h43zM287 509l-87 -252h171zM248 909c39 0 69 -31 69 -69c0 -41 -29 -71 -69 -71c-39 0 -71 32 -71 70s33 70 71 70zM438 909c39 0 70 -31 70 -69c0 -41 -30 -71 -70 -71c-39 0 -71 32 -71 70
s33 70 71 70z" />
    <glyph glyph-name="Agrave" unicode="&#xc0;" horiz-adv-x="685" 
d="M251 681h182l210 -605h36v-76h-307v76h58l-29 91h-232l-31 -91h59v-76h-197v76h43zM287 509l-87 -252h171zM194 930h140l94 -181h-75z" />
    <glyph glyph-name="Aring" unicode="&#xc5;" horiz-adv-x="685" 
d="M341 978c74 0 133 -59 133 -132c0 -74 -59 -133 -133 -133s-132 58 -132 133c0 74 59 132 132 132zM342 901c-31 0 -56 -25 -56 -56s25 -55 56 -55s56 24 56 55s-25 56 -56 56zM251 681h182l210 -605h36v-76h-307v76h58l-29 91h-232l-31 -91h59v-76h-197v76h43zM287 509
l-87 -252h171z" />
    <glyph glyph-name="Atilde" unicode="&#xc3;" horiz-adv-x="685" 
d="M251 681h182l210 -605h36v-76h-307v76h58l-29 91h-232l-31 -91h59v-76h-197v76h43zM287 509l-87 -252h171zM447 908h58c-20 -84 -50 -124 -107 -124c-11 0 -24 1 -37 5l-45 13c-14 4 -24 6 -33 6c-22 0 -35 -11 -44 -37h-58c18 81 51 120 105 120c11 0 26 -3 44 -8
l46 -13c9 -3 18 -4 28 -4c22 0 36 14 43 42z" />
    <glyph glyph-name="Ccedilla" unicode="&#xc7;" horiz-adv-x="630" 
d="M532 625l32 26l42 -58l-212 -172l-41 49c16 15 24 34 24 55c0 39 -27 71 -64 71c-55 0 -94 -57 -94 -156c0 -168 89 -299 207 -299c61 0 110 25 155 77l52 -47c-79 -124 -175 -185 -296 -185c-180 0 -307 137 -307 329c0 95 30 180 90 251c70 84 161 128 250 128
c67 0 122 -23 162 -69zM295 0h56v-41h9c73 0 112 -34 112 -94c0 -63 -43 -102 -124 -102c-37 0 -85 7 -142 23v67c62 -17 108 -22 132 -22c28 0 42 11 42 35c0 22 -19 31 -58 31c-8 0 -17 0 -27 -1v104z" />
    <glyph glyph-name="Eacute" unicode="&#xc9;" horiz-adv-x="644" 
d="M556 681v-142h-69l-1 28c-23 21 -66 30 -134 30h-42v-149h177v50h69v-183h-69v43h-177v-272h42c60 0 104 15 135 48v44h69v-178h-503v76h49v528h-49v77h503zM331 930h140l-159 -181h-75z" />
    <glyph glyph-name="Ecircumflex" unicode="&#xca;" horiz-adv-x="644" 
d="M556 681v-142h-69l-1 28c-23 21 -66 30 -134 30h-42v-149h177v50h69v-183h-69v43h-177v-272h42c60 0 104 15 135 48v44h69v-178h-503v76h49v528h-49v77h503zM259 930h125l94 -181h-75l-81 97l-82 -97h-75z" />
    <glyph glyph-name="Edieresis" unicode="&#xcb;" horiz-adv-x="644" 
d="M556 681v-142h-69l-1 28c-23 21 -66 30 -134 30h-42v-149h177v50h69v-183h-69v43h-177v-272h42c60 0 104 15 135 48v44h69v-178h-503v76h49v528h-49v77h503zM227 909c39 0 69 -31 69 -69c0 -41 -29 -71 -69 -71c-39 0 -71 32 -71 70s33 70 71 70zM417 909
c39 0 70 -31 70 -69c0 -41 -30 -71 -70 -71c-39 0 -71 32 -71 70s33 70 71 70z" />
    <glyph glyph-name="Egrave" unicode="&#xc8;" horiz-adv-x="644" 
d="M556 681v-142h-69l-1 28c-23 21 -66 30 -134 30h-42v-149h177v50h69v-183h-69v43h-177v-272h42c60 0 104 15 135 48v44h69v-178h-503v76h49v528h-49v77h503zM173 930h140l94 -181h-75z" />
    <glyph glyph-name="Eth" unicode="&#xd0;" horiz-adv-x="725" 
d="M53 681h275c236 0 366 -131 366 -333c0 -118 -38 -207 -122 -276c-74 -61 -155 -72 -263 -72h-256v76h49v278h-102v95h102v155h-49v77zM310 590v-141h81v-95h-81v-264h21c86 0 141 88 141 258c0 161 -49 242 -148 242h-14z" />
    <glyph glyph-name="Euro" unicode="&#x20ac;" horiz-adv-x="528" 
d="M519 152c-48 -99 -135 -168 -231 -168c-128 0 -215 95 -233 234h-55l10 52h41c0 20 1 39 4 59h-55l10 52h55c32 119 116 228 250 228c54 0 90 -23 120 -61l26 23l38 -46l-152 -124l-35 42c10 4 18 17 18 36c0 27 -25 50 -55 50c-45 0 -72 -48 -72 -145v-3h185l-10 -52
h-172c2 -21 6 -40 11 -59h151l-10 -52h-123c27 -60 71 -98 125 -98c49 0 79 22 115 68z" />
    <glyph glyph-name="Iacute" unicode="&#xcd;" horiz-adv-x="412" 
d="M53 681h306v-77h-49v-528h49v-76h-306v76h49v528h-49v77zM215 930h140l-159 -181h-75z" />
    <glyph glyph-name="Icircumflex" unicode="&#xce;" horiz-adv-x="412" 
d="M53 681h306v-77h-49v-528h49v-76h-306v76h49v528h-49v77zM143 930h125l94 -181h-75l-81 97l-82 -97h-75z" />
    <glyph glyph-name="Idieresis" unicode="&#xcf;" horiz-adv-x="412" 
d="M53 681h306v-77h-49v-528h49v-76h-306v76h49v528h-49v77zM111 909c39 0 69 -31 69 -69c0 -41 -29 -71 -69 -71c-39 0 -71 32 -71 70s33 70 71 70zM301 909c39 0 70 -31 70 -69c0 -41 -30 -71 -70 -71c-39 0 -71 32 -71 70s33 70 71 70z" />
    <glyph glyph-name="Igrave" unicode="&#xcc;" horiz-adv-x="412" 
d="M53 681h306v-77h-49v-528h49v-76h-306v76h49v528h-49v77zM57 930h140l94 -181h-75z" />
    <glyph glyph-name="Ntilde" unicode="&#xd1;" horiz-adv-x="718" 
d="M53 681h227l245 -358v281h-48v77h187v-77h-48v-604h-121c-14 32 -32 62 -50 89l-253 370v-383h58v-76h-197v76h49v528h-49v77zM477 908h58c-20 -84 -50 -124 -107 -124c-11 0 -24 1 -37 5l-45 13c-14 4 -24 6 -33 6c-22 0 -35 -11 -44 -37h-58c18 81 51 120 105 120
c11 0 26 -3 44 -8l46 -13c9 -3 18 -4 28 -4c22 0 36 14 43 42z" />
    <glyph glyph-name="Oacute" unicode="&#xd3;" horiz-adv-x="759" 
d="M380 694c199 0 349 -147 349 -354c0 -208 -150 -354 -349 -354s-350 146 -350 354s151 354 350 354zM341 606c-65 0 -101 -58 -101 -172c0 -79 20 -169 56 -248c34 -75 76 -112 123 -112c65 0 101 59 101 173c0 78 -20 168 -56 248c-34 75 -76 111 -123 111zM389 930h140
l-159 -181h-75z" />
    <glyph glyph-name="Ocircumflex" unicode="&#xd4;" horiz-adv-x="759" 
d="M380 694c199 0 349 -147 349 -354c0 -208 -150 -354 -349 -354s-350 146 -350 354s151 354 350 354zM341 606c-65 0 -101 -58 -101 -172c0 -79 20 -169 56 -248c34 -75 76 -112 123 -112c65 0 101 59 101 173c0 78 -20 168 -56 248c-34 75 -76 111 -123 111zM317 930h125
l94 -181h-75l-81 97l-82 -97h-75z" />
    <glyph glyph-name="Odieresis" unicode="&#xd6;" horiz-adv-x="759" 
d="M380 694c199 0 349 -147 349 -354c0 -208 -150 -354 -349 -354s-350 146 -350 354s151 354 350 354zM341 606c-65 0 -101 -58 -101 -172c0 -79 20 -169 56 -248c34 -75 76 -112 123 -112c65 0 101 59 101 173c0 78 -20 168 -56 248c-34 75 -76 111 -123 111zM285 909
c39 0 69 -31 69 -69c0 -41 -29 -71 -69 -71c-39 0 -71 32 -71 70s33 70 71 70zM475 909c39 0 70 -31 70 -69c0 -41 -30 -71 -70 -71c-39 0 -71 32 -71 70s33 70 71 70z" />
    <glyph glyph-name="Ograve" unicode="&#xd2;" horiz-adv-x="759" 
d="M380 694c199 0 349 -147 349 -354c0 -208 -150 -354 -349 -354s-350 146 -350 354s151 354 350 354zM341 606c-65 0 -101 -58 -101 -172c0 -79 20 -169 56 -248c34 -75 76 -112 123 -112c65 0 101 59 101 173c0 78 -20 168 -56 248c-34 75 -76 111 -123 111zM231 930h140
l94 -181h-75z" />
    <glyph glyph-name="Otilde" unicode="&#xd5;" horiz-adv-x="759" 
d="M380 694c199 0 349 -147 349 -354c0 -208 -150 -354 -349 -354s-350 146 -350 354s151 354 350 354zM341 606c-65 0 -101 -58 -101 -172c0 -79 20 -169 56 -248c34 -75 76 -112 123 -112c65 0 101 59 101 173c0 78 -20 168 -56 248c-34 75 -76 111 -123 111zM484 908h58
c-20 -84 -50 -124 -107 -124c-11 0 -24 1 -37 5l-45 13c-14 4 -24 6 -33 6c-22 0 -35 -11 -44 -37h-58c18 81 51 120 105 120c11 0 26 -3 44 -8l46 -13c9 -3 18 -4 28 -4c22 0 36 14 43 42z" />
    <glyph glyph-name="Scaron" unicode="&#x160;" horiz-adv-x="625" 
d="M504 645l23 32l58 -36l-108 -170c-96 82 -163 123 -204 123c-33 0 -55 -19 -55 -42c0 -35 37 -58 114 -87c87 -33 157 -55 201 -97c35 -34 54 -77 54 -126c0 -138 -124 -256 -284 -256c-105 0 -207 39 -297 114l116 168c105 -111 191 -168 261 -168c46 0 76 23 76 59
c0 25 -26 43 -76 64c-81 35 -159 54 -216 89c-61 37 -94 91 -94 154c0 114 116 229 256 229c54 0 111 -18 175 -50zM156 930h75l82 -98l81 98h75l-94 -181h-125z" />
    <glyph glyph-name="Thorn" unicode="&#xde;" horiz-adv-x="699" 
d="M53 681h306v-72h-49v-37h37c215 0 329 -90 329 -226c0 -132 -111 -226 -268 -226c-35 0 -67 5 -98 17v-65h63v-72h-320v76h49v528h-49v77zM310 497v-238c0 -45 15 -69 58 -69c59 0 89 45 89 135c0 108 -53 172 -138 172h-9z" />
    <glyph glyph-name="Uacute" unicode="&#xda;" horiz-adv-x="796" 
d="M53 681h257v-482c0 -64 29 -95 90 -95c55 0 86 36 86 104v396h-49v77h257v-605h49v-76h-247l-9 66c-55 -53 -117 -80 -189 -80c-121 0 -196 74 -196 217v401h-49v77zM407 930h140l-159 -181h-75z" />
    <glyph glyph-name="Ucircumflex" unicode="&#xdb;" horiz-adv-x="796" 
d="M53 681h257v-482c0 -64 29 -95 90 -95c55 0 86 36 86 104v396h-49v77h257v-605h49v-76h-247l-9 66c-55 -53 -117 -80 -189 -80c-121 0 -196 74 -196 217v401h-49v77zM335 930h125l94 -181h-75l-81 97l-82 -97h-75z" />
    <glyph glyph-name="Udieresis" unicode="&#xdc;" horiz-adv-x="796" 
d="M53 681h257v-482c0 -64 29 -95 90 -95c55 0 86 36 86 104v396h-49v77h257v-605h49v-76h-247l-9 66c-55 -53 -117 -80 -189 -80c-121 0 -196 74 -196 217v401h-49v77zM303 909c39 0 69 -31 69 -69c0 -41 -29 -71 -69 -71c-39 0 -71 32 -71 70s33 70 71 70zM493 909
c39 0 70 -31 70 -69c0 -41 -30 -71 -70 -71c-39 0 -71 32 -71 70s33 70 71 70z" />
    <glyph glyph-name="Ugrave" unicode="&#xd9;" horiz-adv-x="796" 
d="M53 681h257v-482c0 -64 29 -95 90 -95c55 0 86 36 86 104v396h-49v77h257v-605h49v-76h-247l-9 66c-55 -53 -117 -80 -189 -80c-121 0 -196 74 -196 217v401h-49v77zM249 930h140l94 -181h-75z" />
    <glyph glyph-name="Yacute" unicode="&#xdd;" horiz-adv-x="625" 
d="M-3 681h324v-77h-57l108 -191l113 191h-61v77h199v-77h-34l-277 -471c24 12 44 18 60 18c26 0 49 -9 71 -9c31 0 49 12 65 43l43 -11l-44 -171c-24 -12 -51 -17 -83 -17c-51 0 -104 21 -154 21c-28 0 -56 -7 -86 -16l-40 38l117 194l-233 381h-31v77zM322 930h140
l-159 -181h-75z" />
    <glyph glyph-name="Ydieresis" unicode="&#x178;" horiz-adv-x="625" 
d="M-3 681h324v-77h-57l108 -191l113 191h-61v77h199v-77h-34l-277 -471c24 12 44 18 60 18c26 0 49 -9 71 -9c31 0 49 12 65 43l43 -11l-44 -171c-24 -12 -51 -17 -83 -17c-51 0 -104 21 -154 21c-28 0 -56 -7 -86 -16l-40 38l117 194l-233 381h-31v77zM218 909
c39 0 69 -31 69 -69c0 -41 -29 -71 -69 -71c-39 0 -71 32 -71 70s33 70 71 70zM408 909c39 0 70 -31 70 -69c0 -41 -30 -71 -70 -71c-39 0 -71 32 -71 70s33 70 71 70z" />
    <glyph glyph-name="Zcaron" unicode="&#x17d;" horiz-adv-x="556" 
d="M76 711h72l1 -30h338l37 -99c-11 -13 -38 -47 -82 -101l-248 -302c33 -5 67 -8 101 -8c101 0 154 18 170 72h63l-19 -275h-69l-3 32h-373l-44 108l344 421c-36 6 -72 10 -108 10c-74 0 -115 -23 -136 -83h-70zM121 930h75l82 -98l81 98h75l-94 -181h-125z" />
    <glyph glyph-name="aacute" unicode="&#xe1;" horiz-adv-x="586" 
d="M157 526l53 -19l-10 -28c39 17 82 26 127 26c110 0 175 -62 175 -159v-284h35v-62h-198l-14 47c-45 -40 -91 -61 -137 -61c-97 0 -159 67 -159 155c0 121 85 181 254 181c14 0 28 -1 41 -2v26c0 32 -24 53 -63 53c-40 0 -79 -21 -110 -62l-59 23zM324 260
c-14 2 -22 3 -25 3c-56 0 -88 -37 -88 -93c0 -51 19 -77 56 -77c34 0 57 24 57 63v104zM317 740h140l-159 -181h-75z" />
    <glyph glyph-name="acircumflex" unicode="&#xe2;" horiz-adv-x="586" 
d="M157 526l53 -19l-10 -28c39 17 82 26 127 26c110 0 175 -62 175 -159v-284h35v-62h-198l-14 47c-45 -40 -91 -61 -137 -61c-97 0 -159 67 -159 155c0 121 85 181 254 181c14 0 28 -1 41 -2v26c0 32 -24 53 -63 53c-40 0 -79 -21 -110 -62l-59 23zM324 260
c-14 2 -22 3 -25 3c-56 0 -88 -37 -88 -93c0 -51 19 -77 56 -77c34 0 57 24 57 63v104zM245 740h125l94 -181h-75l-81 97l-82 -97h-75z" />
    <glyph glyph-name="adieresis" unicode="&#xe4;" horiz-adv-x="586" 
d="M157 526l53 -19l-10 -28c39 17 82 26 127 26c110 0 175 -62 175 -159v-284h35v-62h-198l-14 47c-45 -40 -91 -61 -137 -61c-97 0 -159 67 -159 155c0 121 85 181 254 181c14 0 28 -1 41 -2v26c0 32 -24 53 -63 53c-40 0 -79 -21 -110 -62l-59 23zM324 260
c-14 2 -22 3 -25 3c-56 0 -88 -37 -88 -93c0 -51 19 -77 56 -77c34 0 57 24 57 63v104zM213 719c39 0 69 -31 69 -69c0 -41 -29 -71 -69 -71c-39 0 -71 32 -71 70s33 70 71 70zM403 719c39 0 70 -31 70 -69c0 -41 -30 -71 -70 -71c-39 0 -71 32 -71 70s33 70 71 70z" />
    <glyph glyph-name="agrave" unicode="&#xe0;" horiz-adv-x="586" 
d="M157 526l53 -19l-10 -28c39 17 82 26 127 26c110 0 175 -62 175 -159v-284h35v-62h-198l-14 47c-45 -40 -91 -61 -137 -61c-97 0 -159 67 -159 155c0 121 85 181 254 181c14 0 28 -1 41 -2v26c0 32 -24 53 -63 53c-40 0 -79 -21 -110 -62l-59 23zM324 260
c-14 2 -22 3 -25 3c-56 0 -88 -37 -88 -93c0 -51 19 -77 56 -77c34 0 57 24 57 63v104zM159 740h140l94 -181h-75z" />
    <glyph glyph-name="aring" unicode="&#xe5;" horiz-adv-x="586" 
d="M331 802c74 0 133 -59 133 -132c0 -74 -59 -133 -133 -133s-132 58 -132 133c0 74 59 132 132 132zM331 725c-31 0 -56 -25 -56 -56s25 -55 56 -55s56 24 56 55s-25 56 -56 56zM157 526l53 -19l-10 -28c39 17 82 26 127 26c110 0 175 -62 175 -159v-284h35v-62h-198
l-14 47c-45 -40 -91 -61 -137 -61c-97 0 -159 67 -159 155c0 121 85 181 254 181c14 0 28 -1 41 -2v26c0 32 -24 53 -63 53c-40 0 -79 -21 -110 -62l-59 23zM324 260c-14 2 -22 3 -25 3c-56 0 -88 -37 -88 -93c0 -51 19 -77 56 -77c34 0 57 24 57 63v104z" />
    <glyph glyph-name="atilde" unicode="&#xe3;" horiz-adv-x="586" 
d="M157 526l53 -19l-10 -28c39 17 82 26 127 26c110 0 175 -62 175 -159v-284h35v-62h-198l-14 47c-45 -40 -91 -61 -137 -61c-97 0 -159 67 -159 155c0 121 85 181 254 181c14 0 28 -1 41 -2v26c0 32 -24 53 -63 53c-40 0 -79 -21 -110 -62l-59 23zM324 260
c-14 2 -22 3 -25 3c-56 0 -88 -37 -88 -93c0 -51 19 -77 56 -77c34 0 57 24 57 63v104zM412 718h58c-20 -84 -50 -124 -107 -124c-11 0 -24 1 -37 5l-45 13c-14 4 -24 6 -33 6c-22 0 -35 -11 -44 -37h-58c18 81 51 120 105 120c11 0 26 -3 44 -8l46 -13c9 -3 18 -4 28 -4
c22 0 36 14 43 42z" />
    <glyph glyph-name="brokenbar" unicode="&#xa6;" 
d="M192 699h117v-370h-117v370zM192 199h117v-370h-117v370z" />
    <glyph glyph-name="ccedilla" unicode="&#xe7;" horiz-adv-x="498" 
d="M473 402l-136 -131c-26 95 -65 143 -103 143c-31 0 -50 -27 -50 -79c0 -119 56 -205 136 -205c42 0 84 22 113 63l46 -34c-53 -113 -136 -173 -236 -173c-127 0 -216 97 -216 231c0 162 133 288 268 288c72 0 134 -36 178 -103zM213 0h56v-41h9c73 0 112 -34 112 -94
c0 -63 -43 -102 -124 -102c-37 0 -85 7 -142 23v67c62 -17 108 -22 132 -22c28 0 42 11 42 35c0 22 -19 31 -58 31c-8 0 -17 0 -27 -1v104z" />
    <glyph glyph-name="copyright" unicode="&#xa9;" horiz-adv-x="822" 
d="M412 695c94 0 187 -39 255 -106c67 -67 107 -161 107 -258c0 -95 -38 -186 -107 -256c-68 -68 -158 -106 -256 -106c-97 0 -186 37 -256 106c-69 68 -107 158 -107 256c0 97 37 186 106 256c68 69 161 108 258 108zM412 640c-82 0 -161 -33 -218 -91
c-58 -59 -90 -136 -90 -218c0 -84 31 -160 90 -218c60 -59 134 -90 217 -90s159 32 216 90c58 59 91 138 91 218c0 82 -33 163 -90 219c-58 57 -137 90 -216 90zM551 539h24v-161h-25c-20 87 -68 133 -128 133c-73 0 -109 -59 -109 -177c0 -120 42 -183 116 -183
c50 0 94 29 131 86l25 -16c-42 -71 -100 -106 -171 -106c-127 0 -217 92 -217 209c0 128 90 217 212 217c68 0 99 -32 116 -32c15 0 21 9 26 30z" />
    <glyph glyph-name="degree" unicode="&#xb0;" horiz-adv-x="329" 
d="M165 716c83 0 152 -67 152 -152c0 -83 -68 -152 -153 -152c-84 0 -151 67 -151 152c0 86 68 152 152 152zM165 645c-44 0 -81 -35 -81 -80s35 -81 81 -81c45 0 80 37 80 81s-35 80 -80 80z" />
    <glyph glyph-name="divide" unicode="&#xf7;" horiz-adv-x="833" 
d="M417 577c43 0 80 -36 80 -81c0 -43 -35 -80 -81 -80c-45 0 -80 36 -80 80c0 45 37 81 81 81zM124 355h585v-113h-585v113zM417 181c44 0 80 -36 80 -81c0 -43 -34 -80 -80 -80c-44 0 -81 35 -81 80s37 81 81 81z" />
    <glyph glyph-name="eacute" unicode="&#xe9;" horiz-adv-x="532" 
d="M329 319c-23 71 -56 107 -91 107c-30 0 -49 -27 -49 -76c0 -30 5 -58 14 -83zM423 272l-194 -79c29 -58 73 -88 129 -88c45 0 85 17 119 51l36 -39c-68 -88 -149 -131 -252 -131c-137 0 -233 108 -233 257c0 156 117 262 243 262c68 0 126 -26 170 -77
c46 -52 66 -114 66 -125s-25 -7 -84 -31zM275 740h140l-159 -181h-75z" />
    <glyph glyph-name="ecircumflex" unicode="&#xea;" horiz-adv-x="532" 
d="M329 319c-23 71 -56 107 -91 107c-30 0 -49 -27 -49 -76c0 -30 5 -58 14 -83zM423 272l-194 -79c29 -58 73 -88 129 -88c45 0 85 17 119 51l36 -39c-68 -88 -149 -131 -252 -131c-137 0 -233 108 -233 257c0 156 117 262 243 262c68 0 126 -26 170 -77
c46 -52 66 -114 66 -125s-25 -7 -84 -31zM203 740h125l94 -181h-75l-81 97l-82 -97h-75z" />
    <glyph glyph-name="edieresis" unicode="&#xeb;" horiz-adv-x="532" 
d="M329 319c-23 71 -56 107 -91 107c-30 0 -49 -27 -49 -76c0 -30 5 -58 14 -83zM423 272l-194 -79c29 -58 73 -88 129 -88c45 0 85 17 119 51l36 -39c-68 -88 -149 -131 -252 -131c-137 0 -233 108 -233 257c0 156 117 262 243 262c68 0 126 -26 170 -77
c46 -52 66 -114 66 -125s-25 -7 -84 -31zM171 719c39 0 69 -31 69 -69c0 -41 -29 -71 -69 -71c-39 0 -71 32 -71 70s33 70 71 70zM361 719c39 0 70 -31 70 -69c0 -41 -30 -71 -70 -71c-39 0 -71 32 -71 70s33 70 71 70z" />
    <glyph glyph-name="egrave" unicode="&#xe8;" horiz-adv-x="532" 
d="M329 319c-23 71 -56 107 -91 107c-30 0 -49 -27 -49 -76c0 -30 5 -58 14 -83zM423 272l-194 -79c29 -58 73 -88 129 -88c45 0 85 17 119 51l36 -39c-68 -88 -149 -131 -252 -131c-137 0 -233 108 -233 257c0 156 117 262 243 262c68 0 126 -26 170 -77
c46 -52 66 -114 66 -125s-25 -7 -84 -31zM117 740h140l94 -181h-75z" />
    <glyph glyph-name="eth" unicode="&#xf0;" horiz-adv-x="583" 
d="M236 694c36 -25 63 -44 82 -59l93 51l31 -52l-76 -40c128 -124 190 -229 190 -362c0 -143 -114 -246 -264 -246s-264 104 -264 246c0 143 119 246 244 246c18 0 36 -3 54 -9c-11 20 -28 46 -51 77l-93 -49l-31 52l88 46c-14 17 -30 34 -48 53zM381 174
c0 136 -68 234 -119 234c-37 0 -60 -38 -60 -110c0 -143 66 -240 118 -240c40 0 61 39 61 116z" />
    <glyph glyph-name="iacute" unicode="&#xed;" horiz-adv-x="352" 
d="M264 505h7c-3 -36 -5 -65 -5 -86v-357h35v-62h-248v62h35v335l-35 -6v56zM185 740h140l-159 -181h-75z" />
    <glyph glyph-name="icircumflex" unicode="&#xee;" horiz-adv-x="352" 
d="M264 505h7c-3 -36 -5 -65 -5 -86v-357h35v-62h-248v62h35v335l-35 -6v56zM113 740h125l94 -181h-75l-81 97l-82 -97h-75z" />
    <glyph glyph-name="idieresis" unicode="&#xef;" horiz-adv-x="352" 
d="M264 505h7c-3 -36 -5 -65 -5 -86v-357h35v-62h-248v62h35v335l-35 -6v56zM81 719c39 0 69 -31 69 -69c0 -41 -29 -71 -69 -71c-39 0 -71 32 -71 70s33 70 71 70zM271 719c39 0 70 -31 70 -69c0 -41 -30 -71 -70 -71c-39 0 -71 32 -71 70s33 70 71 70z" />
    <glyph glyph-name="igrave" unicode="&#xec;" horiz-adv-x="352" 
d="M264 505h7c-3 -36 -5 -65 -5 -86v-357h35v-62h-248v62h35v335l-35 -6v56zM27 740h140l94 -181h-75z" />
    <glyph glyph-name="logicalnot" unicode="&#xac;" horiz-adv-x="833" 
d="M124 423h585v-245h-112v134h-473v111z" />
    <glyph glyph-name="minus" unicode="&#x2212;" horiz-adv-x="833" 
d="M124 356h585v-115h-585v115z" />
    <glyph glyph-name="mu" unicode="&#xb5;" horiz-adv-x="602" 
d="M107 93c-27 -203 -16 -301 -93 -301c-37 0 -62 25 -62 60c0 55 49 160 85 331l53 249h143l-52 -243c-7 -30 -10 -50 -10 -61c0 -36 20 -58 50 -58c42 0 68 37 84 110l54 252h142l-54 -256c-4 -17 -6 -32 -6 -45c0 -29 14 -45 36 -45c17 0 33 9 44 25c17 25 24 51 44 51
c6 0 14 -8 14 -19c0 -14 -11 -56 -36 -93c-27 -41 -62 -60 -108 -60c-58 0 -88 30 -93 95c-24 -64 -65 -95 -122 -95c-65 0 -106 36 -113 103z" />
    <glyph glyph-name="multiply" unicode="&#xd7;" horiz-adv-x="833" 
d="M210 593l215 -215l215 215l79 -79l-215 -216l215 -215l-79 -79l-215 215l-215 -215l-79 79l215 215l-215 216z" />
    <glyph glyph-name="ntilde" unicode="&#xf1;" horiz-adv-x="669" 
d="M264 505h7l-5 -86c68 57 127 86 179 86c83 0 141 -51 141 -151v-292h34v-62h-247v62h34v261c0 43 -18 64 -54 64c-26 0 -58 -13 -87 -40v-285h35v-62h-248v62h35v335l-35 -6v56zM445 718h58c-20 -84 -50 -124 -107 -124c-11 0 -24 1 -37 5l-45 13c-14 4 -24 6 -33 6
c-22 0 -35 -11 -44 -37h-58c18 81 51 120 105 120c11 0 26 -3 44 -8l46 -13c9 -3 18 -4 28 -4c22 0 36 14 43 42z" />
    <glyph glyph-name="oacute" unicode="&#xf3;" horiz-adv-x="611" 
d="M306 505c159 0 277 -110 277 -260s-117 -259 -277 -259s-278 108 -278 259s118 260 278 260zM400 183c0 144 -71 247 -126 247c-39 0 -63 -40 -63 -116c0 -150 68 -253 124 -253c42 0 65 41 65 122zM315 740h140l-159 -181h-75z" />
    <glyph glyph-name="ocircumflex" unicode="&#xf4;" horiz-adv-x="611" 
d="M306 505c159 0 277 -110 277 -260s-117 -259 -277 -259s-278 108 -278 259s118 260 278 260zM400 183c0 144 -71 247 -126 247c-39 0 -63 -40 -63 -116c0 -150 68 -253 124 -253c42 0 65 41 65 122zM243 740h125l94 -181h-75l-81 97l-82 -97h-75z" />
    <glyph glyph-name="odieresis" unicode="&#xf6;" horiz-adv-x="611" 
d="M306 505c159 0 277 -110 277 -260s-117 -259 -277 -259s-278 108 -278 259s118 260 278 260zM400 183c0 144 -71 247 -126 247c-39 0 -63 -40 -63 -116c0 -150 68 -253 124 -253c42 0 65 41 65 122zM211 719c39 0 69 -31 69 -69c0 -41 -29 -71 -69 -71
c-39 0 -71 32 -71 70s33 70 71 70zM401 719c39 0 70 -31 70 -69c0 -41 -30 -71 -70 -71c-39 0 -71 32 -71 70s33 70 71 70z" />
    <glyph glyph-name="ograve" unicode="&#xf2;" horiz-adv-x="611" 
d="M306 505c159 0 277 -110 277 -260s-117 -259 -277 -259s-278 108 -278 259s118 260 278 260zM400 183c0 144 -71 247 -126 247c-39 0 -63 -40 -63 -116c0 -150 68 -253 124 -253c42 0 65 41 65 122zM157 740h140l94 -181h-75z" />
    <glyph glyph-name="onehalf" unicode="&#xbd;" horiz-adv-x="832" 
d="M203 593h18c-2 -9 -2 -17 -2 -23v-275h29v-34h-160v34h29v217l-37 -14v36c81 29 111 59 123 59zM570 606h96l-403 -620h-97zM662 74h60c27 0 40 7 45 30h35l-10 -116h-33l-3 12h-204l-9 48c103 56 155 122 155 175c0 45 -35 73 -63 73c-17 0 -29 -11 -29 -28
c0 -19 22 -40 60 -50l-53 -85c-57 9 -90 45 -90 89c0 60 69 118 154 118c77 0 132 -41 132 -95c0 -51 -50 -103 -147 -171z" />
    <glyph glyph-name="onequarter" unicode="&#xbc;" horiz-adv-x="832" 
d="M203 593h18c-2 -9 -2 -17 -2 -23v-275h29v-34h-160v34h29v217l-37 -14v36c81 29 111 59 123 59zM570 606h96l-403 -620h-97zM709 332h61c-2 -9 -2 -17 -2 -23v-190l40 3l-12 -49h-28v-39h29v-34h-163v34h34v39h-140v41zM673 230l-93 -111h89z" />
    <glyph glyph-name="onesuperior" unicode="&#xb9;" horiz-adv-x="348" 
d="M214 593h18c-1 -10 -1 -18 -1 -25v-295h30v-36h-167v36h30v233l-40 -15v39c85 31 117 63 130 63z" />
    <glyph glyph-name="otilde" unicode="&#xf5;" horiz-adv-x="611" 
d="M306 505c159 0 277 -110 277 -260s-117 -259 -277 -259s-278 108 -278 259s118 260 278 260zM400 183c0 144 -71 247 -126 247c-39 0 -63 -40 -63 -116c0 -150 68 -253 124 -253c42 0 65 41 65 122zM410 718h58c-20 -84 -50 -124 -107 -124c-11 0 -24 1 -37 5l-45 13
c-14 4 -24 6 -33 6c-22 0 -35 -11 -44 -37h-58c18 81 51 120 105 120c11 0 26 -3 44 -8l46 -13c9 -3 18 -4 28 -4c22 0 36 14 43 42z" />
    <glyph glyph-name="plusminus" unicode="&#xb1;" horiz-adv-x="833" 
d="M359 606h116v-156h234v-113h-234v-156h-116v156h-235v113h235v156zM124 104h585v-113h-585v113z" />
    <glyph glyph-name="registered" unicode="&#xae;" horiz-adv-x="822" 
d="M412 695c98 0 194 -41 262 -112c64 -66 100 -159 100 -260c0 -90 -42 -186 -117 -257c-66 -63 -153 -98 -246 -98c-72 0 -140 21 -200 60c-103 69 -163 179 -163 303c0 96 37 187 106 256c68 69 161 108 258 108zM412 640c-82 0 -162 -33 -219 -91
c-58 -59 -89 -136 -89 -218c0 -84 31 -160 90 -218c60 -59 134 -90 217 -90s159 32 216 90c58 59 91 138 91 218c0 82 -34 163 -91 219c-58 57 -136 90 -215 90zM226 537h198c101 0 159 -44 159 -98c0 -58 -42 -87 -135 -103c75 -15 112 -56 112 -127c0 -29 5 -43 21 -43
s26 20 26 58v6h27c0 -5 1 -10 1 -14c0 -59 -31 -88 -92 -88c-30 0 -53 9 -66 24c-22 25 -15 60 -20 97c-8 55 -28 79 -72 79h-8v-119c0 -30 10 -39 43 -44v-28h-194v28c36 3 48 13 48 44v256c0 32 -11 40 -48 45v27zM377 355c7 -1 13 -1 19 -1c55 0 83 28 83 85
c0 38 -26 71 -67 71c-24 0 -35 -10 -35 -31v-124z" />
    <glyph glyph-name="scaron" unicode="&#x161;" horiz-adv-x="440" 
d="M404 450l-73 -115c-55 65 -98 98 -133 98c-19 0 -31 -12 -31 -29c0 -26 30 -44 82 -70c109 -55 169 -89 169 -171c0 -93 -88 -177 -217 -177c-73 0 -139 24 -198 71l82 127c72 -79 128 -118 166 -118c22 0 34 11 34 31c0 26 -32 43 -90 74c-90 49 -148 75 -148 167
c0 95 71 167 189 167c59 0 114 -18 168 -55zM63 740h75l82 -98l81 98h75l-94 -181h-125z" />
    <glyph glyph-name="thorn" unicode="&#xfe;" horiz-adv-x="620" 
d="M301 690v-63l-37 -12v-161c47 34 92 51 136 51c102 0 193 -94 193 -239c0 -157 -104 -280 -236 -280c-40 0 -71 10 -93 28v-118h62v-63h-275v63h35v662l-35 -11v63zM264 164c0 -73 22 -110 67 -110c52 0 79 54 79 160c0 125 -43 189 -117 189c-9 0 -18 -1 -29 -2v-237z
" />
    <glyph glyph-name="threequarters" unicode="&#xbe;" horiz-adv-x="832" 
d="M20 301l76 68c29 -39 54 -59 83 -59c24 0 40 15 40 34c0 35 -49 72 -94 72c-8 0 -18 -2 -28 -4l-18 23l99 88h-48c-27 0 -45 -6 -63 -23l-34 11l50 104l30 -10l-3 -12h158l18 -39l-78 -71c58 -8 93 -46 93 -91c0 -74 -70 -139 -161 -139c-43 0 -83 16 -120 48zM570 606
h96l-403 -620h-97zM709 332h61c-2 -9 -2 -17 -2 -23v-190l40 3l-12 -49h-28v-39h29v-34h-163v34h34v39h-140v41zM673 230l-93 -111h89z" />
    <glyph glyph-name="threesuperior" unicode="&#xb3;" horiz-adv-x="348" 
d="M20 280l80 72c31 -41 57 -62 87 -62c26 0 43 15 43 36c0 37 -52 77 -99 77c-9 0 -19 -2 -29 -4l-19 24l103 95h-49c-29 0 -48 -6 -67 -25l-35 12l51 111l33 -11l-4 -12h166l19 -42l-82 -76c61 -9 97 -49 97 -98c0 -79 -73 -148 -168 -148c-45 0 -87 16 -127 51z" />
    <glyph glyph-name="trademark" unicode="&#x2122;" horiz-adv-x="822" 
d="M112 713h223l6 -97h-18c-4 51 -23 75 -63 75v-205c0 -14 5 -22 15 -24l15 -3v-16h-133v16l15 3c10 2 15 10 15 24v205h-2c-38 0 -58 -25 -62 -75h-17zM364 713h108l62 -174l60 174h101v-13l-11 -3c-13 -3 -17 -10 -17 -24v-187c0 -14 4 -21 17 -24l11 -3v-16h-127v16
l15 3c11 2 17 10 17 24v173l-72 -217h-21l-81 223v-179c0 -14 5 -22 17 -24l17 -3v-16h-96v16l17 3c11 2 17 10 17 24v183c0 14 -6 22 -17 24l-17 3v17z" />
    <glyph glyph-name="twosuperior" unicode="&#xb2;" horiz-adv-x="348" 
d="M170 316h63c28 0 42 7 47 32h37l-11 -124h-35l-2 13h-214l-9 51c106 61 161 131 161 188c0 48 -36 78 -65 78c-19 0 -30 -12 -30 -30c0 -21 22 -42 62 -53l-55 -92c-60 10 -95 49 -95 96c0 64 72 126 161 126c81 0 139 -44 139 -102c0 -54 -53 -110 -154 -183z" />
    <glyph glyph-name="uacute" unicode="&#xfa;" horiz-adv-x="648" 
d="M255 505h7v-337c0 -42 17 -64 50 -64c23 0 50 11 72 33v260l-34 -6v56l206 58h6v-443h35v-62h-201l-21 60c-54 -50 -107 -74 -152 -74c-83 0 -140 51 -140 151v260l-34 -6v56zM343 740h140l-159 -181h-75z" />
    <glyph glyph-name="ucircumflex" unicode="&#xfb;" horiz-adv-x="648" 
d="M255 505h7v-337c0 -42 17 -64 50 -64c23 0 50 11 72 33v260l-34 -6v56l206 58h6v-443h35v-62h-201l-21 60c-54 -50 -107 -74 -152 -74c-83 0 -140 51 -140 151v260l-34 -6v56zM271 740h125l94 -181h-75l-81 97l-82 -97h-75z" />
    <glyph glyph-name="udieresis" unicode="&#xfc;" horiz-adv-x="648" 
d="M255 505h7v-337c0 -42 17 -64 50 -64c23 0 50 11 72 33v260l-34 -6v56l206 58h6v-443h35v-62h-201l-21 60c-54 -50 -107 -74 -152 -74c-83 0 -140 51 -140 151v260l-34 -6v56zM239 719c39 0 69 -31 69 -69c0 -41 -29 -71 -69 -71c-39 0 -71 32 -71 70s33 70 71 70z
M429 719c39 0 70 -31 70 -69c0 -41 -30 -71 -70 -71c-39 0 -71 32 -71 70s33 70 71 70z" />
    <glyph glyph-name="ugrave" unicode="&#xf9;" horiz-adv-x="648" 
d="M255 505h7v-337c0 -42 17 -64 50 -64c23 0 50 11 72 33v260l-34 -6v56l206 58h6v-443h35v-62h-201l-21 60c-54 -50 -107 -74 -152 -74c-83 0 -140 51 -140 151v260l-34 -6v56zM185 740h140l94 -181h-75z" />
    <glyph glyph-name="yacute" unicode="&#xfd;" horiz-adv-x="542" 
d="M184 505c10 -41 29 -87 52 -138c47 89 77 131 136 131c36 0 70 -19 104 -19c15 0 31 5 46 15l21 -22c-13 -18 -29 -49 -50 -94l-188 -400c-51 -108 -105 -163 -179 -163c-30 0 -58 7 -76 16l28 132c32 -16 58 -25 80 -25c32 0 57 15 69 43l12 28l-191 357l-31 -13l-23 45
zM410 370c-8 -4 -15 -7 -22 -7c-30 0 -50 18 -74 18c-21 0 -42 -19 -60 -57l66 -146zM280 740h140l-159 -181h-75z" />
    <glyph glyph-name="ydieresis" unicode="&#xff;" horiz-adv-x="542" 
d="M184 505c10 -41 29 -87 52 -138c47 89 77 131 136 131c36 0 70 -19 104 -19c15 0 31 5 46 15l21 -22c-13 -18 -29 -49 -50 -94l-188 -400c-51 -108 -105 -163 -179 -163c-30 0 -58 7 -76 16l28 132c32 -16 58 -25 80 -25c32 0 57 15 69 43l12 28l-191 357l-31 -13l-23 45
zM410 370c-8 -4 -15 -7 -22 -7c-30 0 -50 18 -74 18c-21 0 -42 -19 -60 -57l66 -146zM176 719c39 0 69 -31 69 -69c0 -41 -29 -71 -69 -71c-39 0 -71 32 -71 70s33 70 71 70zM366 719c39 0 70 -31 70 -69c0 -41 -30 -71 -70 -71c-39 0 -71 32 -71 70s33 70 71 70z" />
    <glyph glyph-name="zcaron" unicode="&#x17e;" horiz-adv-x="440" 
d="M75 516h55l2 -25h251l25 -60c-18 -16 -30 -31 -42 -45l-215 -253c12 -4 28 -7 47 -7c78 0 132 27 172 86l50 -10l-35 -232h-55l-2 30h-281l-41 84l252 295c-24 4 -44 6 -57 6c-55 0 -91 -19 -120 -63l-45 13zM63 740h75l82 -98l81 98h75l-94 -181h-125z" />
    </font>
</defs>
</svg>
